<svg xmlns="http://www.w3.org/2000/svg" viewBox="0 0 1200 800"><rect width="1200" height="800" fill="#0f172a"/><text x="600" y="40" fill="#fff" font-family="Apple SD Gothic Neo, Arial, sans-serif" font-size="28" font-weight="bold" text-anchor="middle">비트코인 차트 분석 결과 (2025.10.21)</text><rect width="750" height="650" x="50" y="80" fill="#1e293b" stroke="#3b82f6" stroke-width="2" rx="10"/><text x="425" y="120" fill="#60a5fa" font-family="Apple SD Gothic Neo, Arial" font-size="20" font-weight="bold" text-anchor="middle">BTC/KRW 일봉 차트</text><text x="90" y="180" fill="#94a3b8" font-family="monospace" font-size="12">179,869,000</text><text x="90" y="280" fill="#94a3b8" font-family="monospace" font-size="12">170,000,000</text><text x="90" y="380" fill="#94a3b8" font-family="monospace" font-size="12">160,000,000</text><text x="90" y="480" fill="#94a3b8" font-family="monospace" font-size="12">150,000,000</text><text x="90" y="580" fill="#94a3b8" font-family="monospace" font-size="12">140,000,000</text><text x="90" y="680" fill="#94a3b8" font-family="monospace" font-size="12">88,266,000</text><line x1="180" x2="760" y1="170" y2="170" stroke="#334155" stroke-width="1"/><line x1="180" x2="760" y1="270" y2="270" stroke="#334155" stroke-width="1"/><line x1="180" x2="760" y1="370" y2="370" stroke="#334155" stroke-width="1"/><line x1="180" x2="760" y1="470" y2="470" stroke="#334155" stroke-width="1"/><line x1="180" x2="760" y1="570" y2="570" stroke="#334155" stroke-width="1"/><line x1="180" x2="760" y1="670" y2="670" stroke="#334155" stroke-width="1"/><path fill="none" stroke="#ef4444" stroke-width="3" d="M 200,270 L 250,250 L 300,230 L 350,210 L 400,240 L 450,300 L 500,320 L 550,340 L 600,360 L 650,350 L 700,370 L 750,380"/><path fill="none" stroke="#3b82f6" stroke-dasharray="5 5" stroke-width="2" d="M 200,280 L 250,260 L 300,240 L 350,220 L 400,250 L 450,310 L 500,330 L 550,350 L 600,365 L 650,360 L 700,375 L 750,380"/><path fill="none" stroke="#10b981" stroke-dasharray="5 5" stroke-width="2" d="M 200,300 L 250,285 L 300,270 L 350,255 L 400,270 L 450,320 L 500,340 L 550,360 L 600,375 L 650,370 L 700,380 L 750,385"/><path fill="none" stroke="#f59e0b" stroke-dasharray="5 5" stroke-width="2" d="M 200,380 L 250,370 L 300,360 L 350,350 L 400,360 L 450,380 L 500,390 L 550,400 L 600,405 L 650,400 L 700,400 L 750,398"/><circle cx="750" cy="380" r="8" fill="#ef4444"/><text x="770" y="385" fill="#ef4444" font-family="Apple SD Gothic Neo, Arial" font-size="14" font-weight="bold">163,725,000원</text><line x1="180" x2="760" y1="290" y2="290" stroke="#dc2626" stroke-dasharray="10 5" stroke-width="2"/><text x="770" y="295" fill="#dc2626" font-family="Apple SD Gothic Neo, Arial" font-size="12">저항선 166M</text><line x1="180" x2="760" y1="398" y2="398" stroke="#16a34a" stroke-dasharray="10 5" stroke-width="2"/><text x="770" y="403" fill="#16a34a" font-family="Apple SD Gothic Neo, Arial" font-size="12">지지선 162.5M</text><text x="250" y="710" fill="#94a3b8" font-family="Apple SD Gothic Neo, Arial" font-size="11">10/11</text><text x="400" y="710" fill="#94a3b8" font-family="Apple SD Gothic Neo, Arial" font-size="11">10/14</text><text x="550" y="710" fill="#94a3b8" font-family="Apple SD Gothic Neo, Arial" font-size="11">10/17</text><text x="700" y="710" fill="#94a3b8" font-family="Apple SD Gothic Neo, Arial" font-size="11">10/21</text><rect width="320" height="650" x="830" y="80" fill="#1e293b" stroke="#8b5cf6" stroke-width="2" rx="10"/><circle cx="990" cy="130" r="30" fill="#8b5cf6"/><text x="990" y="140" fill="#fff" font-family="Apple SD Gothic Neo, Arial" font-size="20" font-weight="bold" text-anchor="middle">AI</text><text x="990" y="190" fill="#a78bfa" font-family="Apple SD Gothic Neo, Arial" font-size="18" font-weight="bold" text-anchor="middle">Gemini 분석</text><rect width="260" height="50" x="860" y="210" fill="#334155" rx="5"/><text x="990" y="235" fill="#fbbf24" font-family="Apple SD Gothic Neo, Arial" font-size="16" font-weight="bold" text-anchor="middle">선택: 관망</text><text x="870" y="285" fill="#e2e8f0" font-family="Apple SD Gothic Neo, Arial" font-size="14" font-weight="bold">근거:</text><text x="870" y="310" fill="#cbd5e1" font-family="Apple SD Gothic Neo, Arial" font-size="12">1. 단기 하락 추세</text><text x="870" y="330" fill="#cbd5e1" font-family="Apple SD Gothic Neo, Arial" font-size="12">(MA5/MA20 하회)</text><text x="870" y="360" fill="#cbd5e1" font-family="Apple SD Gothic Neo, Arial" font-size="12">2. 과매도권 근접</text><text x="870" y="380" fill="#cbd5e1" font-family="Apple SD Gothic Neo, Arial" font-size="12">(RSI 42.5)</text><text x="870" y="410" fill="#cbd5e1" font-family="Apple SD Gothic Neo, Arial" font-size="12">3. MA60 지지선 주목</text><text x="870" y="430" fill="#cbd5e1" font-family="Apple SD Gothic Neo, Arial" font-size="12">(162.5M)</text><rect width="260" height="100" x="860" y="460" fill="#1e40af" rx="5"/><text x="870" y="485" fill="#fff" font-family="Apple SD Gothic Neo, Arial" font-size="13" font-weight="bold">가격 목표</text><text x="870" y="510" fill="#e2e8f0" font-family="Apple SD Gothic Neo, Arial" font-size="12">매수가: 162,000,000원</text><text x="870" y="532" fill="#e2e8f0" font-family="Apple SD Gothic Neo, Arial" font-size="12">매도가: 164,000,000원</text><text x="870" y="554" fill="#e2e8f0" font-family="Apple SD Gothic Neo, Arial" font-size="12">목표가: 166,000,000원</text><rect width="260" height="130" x="860" y="580" fill="#064e3b" rx="5"/><text x="870" y="605" fill="#fff" font-family="Apple SD Gothic Neo, Arial" font-size="13" font-weight="bold">기술적 지표</text><text x="870" y="630" fill="#d1fae5" font-family="Apple SD Gothic Neo, Arial" font-size="11">MACD: -1,406,343 (하락)</text><text x="870" y="652" fill="#d1fae5" font-family="Apple SD Gothic Neo, Arial" font-size="11">RSI14: 42.5 (중립~과매도)</text><text x="870" y="674" fill="#d1fae5" font-family="Apple SD Gothic Neo, Arial" font-size="11">Stoch %K: 20.1 (과매도)</text><text x="870" y="696" fill="#d1fae5" font-family="Apple SD Gothic Neo, Arial" font-size="11">BB폭: 0.0% (수렴)</text><g id="legend"><line x1="220" x2="260" y1="755" y2="755" stroke="#3b82f6" stroke-dasharray="5 5" stroke-width="2"/><text x="270" y="760" fill="#94a3b8" font-family="Apple SD Gothic Neo, Arial" font-size="11">MA5</text><line x1="320" x2="360" y1="755" y2="755" stroke="#10b981" stroke-dasharray="5 5" stroke-width="2"/><text x="370" y="760" fill="#94a3b8" font-family="Apple SD Gothic Neo, Arial" font-size="11">MA20</text><line x1="420" x2="460" y1="755" y2="755" stroke="#f59e0b" stroke-dasharray="5 5" stroke-width="2"/><text x="470" y="760" fill="#94a3b8" font-family="Apple SD Gothic Neo, Arial" font-size="11">MA60</text><line x1="530" x2="570" y1="755" y2="755" stroke="#ef4444" stroke-width="3"/><text x="580" y="760" fill="#94a3b8" font-family="Apple SD Gothic Neo, Arial" font-size="11">Price</text></g></svg>