<svg xmlns="http://www.w3.org/2000/svg" viewBox="0 0 1200 800">
  <!-- Background -->
  <rect width="1200" height="800" fill="#0f172a"/>

  <!-- Title -->
  <text x="600" y="40" font-family="Apple SD Gothic Neo, Arial, sans-serif" font-size="28" font-weight="bold" fill="#ffffff" text-anchor="middle">비트코인 차트 분석 결과 (2025.10.21)</text>

  <!-- Chart Container -->
  <rect x="50" y="80" width="750" height="650" rx="10" fill="#1e293b" stroke="#3b82f6" stroke-width="2"/>

  <!-- Chart Title -->
  <text x="425" y="120" font-family="Apple SD Gothic Neo, Arial" font-size="20" font-weight="bold" fill="#60a5fa" text-anchor="middle">BTC/KRW 일봉 차트</text>

  <!-- Y-axis labels (Price) -->
  <text x="90" y="180" font-family="monospace" font-size="12" fill="#94a3b8">179,869,000</text>
  <text x="90" y="280" font-family="monospace" font-size="12" fill="#94a3b8">170,000,000</text>
  <text x="90" y="380" font-family="monospace" font-size="12" fill="#94a3b8">160,000,000</text>
  <text x="90" y="480" font-family="monospace" font-size="12" fill="#94a3b8">150,000,000</text>
  <text x="90" y="580" font-family="monospace" font-size="12" fill="#94a3b8">140,000,000</text>
  <text x="90" y="680" font-family="monospace" font-size="12" fill="#94a3b8"> 88,266,000</text>

  <!-- Grid lines -->
  <line x1="180" y1="170" x2="760" y2="170" stroke="#334155" stroke-width="1"/>
  <line x1="180" y1="270" x2="760" y2="270" stroke="#334155" stroke-width="1"/>
  <line x1="180" y1="370" x2="760" y2="370" stroke="#334155" stroke-width="1"/>
  <line x1="180" y1="470" x2="760" y2="470" stroke="#334155" stroke-width="1"/>
  <line x1="180" y1="570" x2="760" y2="570" stroke="#334155" stroke-width="1"/>
  <line x1="180" y1="670" x2="760" y2="670" stroke="#334155" stroke-width="1"/>

  <!-- Candlesticks (simplified representation) -->
  <!-- Recent downtrend pattern -->
  <path d="M 200,270 L 250,250 L 300,230 L 350,210 L 400,240 L 450,300 L 500,320 L 550,340 L 600,360 L 650,350 L 700,370 L 750,380"
        stroke="#ef4444" stroke-width="3" fill="none"/>

  <!-- Moving Averages -->
  <!-- MA5 (blue) -->
  <path d="M 200,280 L 250,260 L 300,240 L 350,220 L 400,250 L 450,310 L 500,330 L 550,350 L 600,365 L 650,360 L 700,375 L 750,380"
        stroke="#3b82f6" stroke-width="2" fill="none" stroke-dasharray="5,5"/>

  <!-- MA20 (green) -->
  <path d="M 200,300 L 250,285 L 300,270 L 350,255 L 400,270 L 450,320 L 500,340 L 550,360 L 600,375 L 650,370 L 700,380 L 750,385"
        stroke="#10b981" stroke-width="2" fill="none" stroke-dasharray="5,5"/>

  <!-- MA60 (orange) -->
  <path d="M 200,380 L 250,370 L 300,360 L 350,350 L 400,360 L 450,380 L 500,390 L 550,400 L 600,405 L 650,400 L 700,400 L 750,398"
        stroke="#f59e0b" stroke-width="2" fill="none" stroke-dasharray="5,5"/>

  <!-- Current Price Marker -->
  <circle cx="750" cy="380" r="8" fill="#ef4444"/>
  <text x="770" y="385" font-family="Apple SD Gothic Neo, Arial" font-size="14" font-weight="bold" fill="#ef4444">163,725,000원</text>

  <!-- Support/Resistance Lines -->
  <!-- Resistance at 24h high -->
  <line x1="180" y1="290" x2="760" y2="290" stroke="#dc2626" stroke-width="2" stroke-dasharray="10,5"/>
  <text x="770" y="295" font-family="Apple SD Gothic Neo, Arial" font-size="12" fill="#dc2626">저항선 166M</text>

  <!-- Support at MA60 -->
  <line x1="180" y1="398" x2="760" y2="398" stroke="#16a34a" stroke-width="2" stroke-dasharray="10,5"/>
  <text x="770" y="403" font-family="Apple SD Gothic Neo, Arial" font-size="12" fill="#16a34a">지지선 162.5M</text>

  <!-- X-axis labels (Dates) -->
  <text x="250" y="710" font-family="Apple SD Gothic Neo, Arial" font-size="11" fill="#94a3b8">10/11</text>
  <text x="400" y="710" font-family="Apple SD Gothic Neo, Arial" font-size="11" fill="#94a3b8">10/14</text>
  <text x="550" y="710" font-family="Apple SD Gothic Neo, Arial" font-size="11" fill="#94a3b8">10/17</text>
  <text x="700" y="710" font-family="Apple SD Gothic Neo, Arial" font-size="11" fill="#94a3b8">10/21</text>

  <!-- Right Panel: AI Analysis Result -->
  <rect x="830" y="80" width="320" height="650" rx="10" fill="#1e293b" stroke="#8b5cf6" stroke-width="2"/>

  <!-- AI Badge -->
  <circle cx="990" cy="130" r="30" fill="#8b5cf6"/>
  <text x="990" y="140" font-family="Apple SD Gothic Neo, Arial" font-size="20" font-weight="bold" fill="#ffffff" text-anchor="middle">AI</text>

  <!-- Analysis Title -->
  <text x="990" y="190" font-family="Apple SD Gothic Neo, Arial" font-size="18" font-weight="bold" fill="#a78bfa" text-anchor="middle">Gemini 분석</text>

  <!-- Decision -->
  <rect x="860" y="210" width="260" height="50" rx="5" fill="#334155"/>
  <text x="990" y="235" font-family="Apple SD Gothic Neo, Arial" font-size="16" font-weight="bold" fill="#fbbf24" text-anchor="middle">선택: 관망</text>

  <!-- Reasons -->
  <text x="870" y="285" font-family="Apple SD Gothic Neo, Arial" font-size="14" font-weight="bold" fill="#e2e8f0">근거:</text>
  <text x="870" y="310" font-family="Apple SD Gothic Neo, Arial" font-size="12" fill="#cbd5e1">1. 단기 하락 추세</text>
  <text x="870" y="330" font-family="Apple SD Gothic Neo, Arial" font-size="12" fill="#cbd5e1">   (MA5/MA20 하회)</text>

  <text x="870" y="360" font-family="Apple SD Gothic Neo, Arial" font-size="12" fill="#cbd5e1">2. 과매도권 근접</text>
  <text x="870" y="380" font-family="Apple SD Gothic Neo, Arial" font-size="12" fill="#cbd5e1">   (RSI 42.5)</text>

  <text x="870" y="410" font-family="Apple SD Gothic Neo, Arial" font-size="12" fill="#cbd5e1">3. MA60 지지선 주목</text>
  <text x="870" y="430" font-family="Apple SD Gothic Neo, Arial" font-size="12" fill="#cbd5e1">   (162.5M)</text>

  <!-- Price Targets -->
  <rect x="860" y="460" width="260" height="100" rx="5" fill="#1e40af"/>
  <text x="870" y="485" font-family="Apple SD Gothic Neo, Arial" font-size="13" font-weight="bold" fill="#ffffff">가격 목표</text>
  <text x="870" y="510" font-family="Apple SD Gothic Neo, Arial" font-size="12" fill="#e2e8f0">매수가: 162,000,000원</text>
  <text x="870" y="532" font-family="Apple SD Gothic Neo, Arial" font-size="12" fill="#e2e8f0">매도가: 164,000,000원</text>
  <text x="870" y="554" font-family="Apple SD Gothic Neo, Arial" font-size="12" fill="#e2e8f0">목표가: 166,000,000원</text>

  <!-- Indicators -->
  <rect x="860" y="580" width="260" height="130" rx="5" fill="#064e3b"/>
  <text x="870" y="605" font-family="Apple SD Gothic Neo, Arial" font-size="13" font-weight="bold" fill="#ffffff">기술적 지표</text>
  <text x="870" y="630" font-family="Apple SD Gothic Neo, Arial" font-size="11" fill="#d1fae5">MACD: -1,406,343 (하락)</text>
  <text x="870" y="652" font-family="Apple SD Gothic Neo, Arial" font-size="11" fill="#d1fae5">RSI14: 42.5 (중립~과매도)</text>
  <text x="870" y="674" font-family="Apple SD Gothic Neo, Arial" font-size="11" fill="#d1fae5">Stoch %K: 20.1 (과매도)</text>
  <text x="870" y="696" font-family="Apple SD Gothic Neo, Arial" font-size="11" fill="#d1fae5">BB폭: 0.0% (수렴)</text>

  <!-- Legend -->
  <g id="legend">
    <line x1="220" y1="755" x2="260" y2="755" stroke="#3b82f6" stroke-width="2" stroke-dasharray="5,5"/>
    <text x="270" y="760" font-family="Apple SD Gothic Neo, Arial" font-size="11" fill="#94a3b8">MA5</text>

    <line x1="320" y1="755" x2="360" y2="755" stroke="#10b981" stroke-width="2" stroke-dasharray="5,5"/>
    <text x="370" y="760" font-family="Apple SD Gothic Neo, Arial" font-size="11" fill="#94a3b8">MA20</text>

    <line x1="420" y1="755" x2="460" y2="755" stroke="#f59e0b" stroke-width="2" stroke-dasharray="5,5"/>
    <text x="470" y="760" font-family="Apple SD Gothic Neo, Arial" font-size="11" fill="#94a3b8">MA60</text>

    <line x1="530" y1="755" x2="570" y2="755" stroke="#ef4444" stroke-width="3"/>
    <text x="580" y="760" font-family="Apple SD Gothic Neo, Arial" font-size="11" fill="#94a3b8">Price</text>
  </g>
</svg>
