<svg xmlns="http://www.w3.org/2000/svg" viewBox="0 0 1200 700"><rect width="1200" height="700" fill="#0f172a"/><text x="600" y="50" fill="#fff" font-family="Apple SD Gothic Neo, Arial, sans-serif" font-size="32" font-weight="bold" text-anchor="middle">주요 암호화폐 거래소 API 비교</text><rect width="200" height="60" x="50" y="100" fill="#1e40af"/><text x="150" y="137" fill="#fff" font-family="Apple SD Gothic Neo, Arial" font-size="18" font-weight="bold" text-anchor="middle">항목</text><rect width="225" height="60" x="250" y="100" fill="#7c3aed"/><circle cx="285" cy="130" r="18" fill="#003c7f"/><text x="340" y="137" fill="#fff" font-family="Apple SD Gothic Neo, Arial" font-size="20" font-weight="bold" text-anchor="middle">Upbit</text><rect width="225" height="60" x="475" y="100" fill="#4b5563"/><circle cx="510" cy="130" r="18" fill="#1e40af"/><text x="565" y="137" fill="#fff" font-family="Apple SD Gothic Neo, Arial" font-size="20" font-weight="bold" text-anchor="middle">Bithumb</text><rect width="225" height="60" x="700" y="100" fill="#4b5563"/><circle cx="735" cy="130" r="18" fill="#059669"/><text x="790" y="137" fill="#fff" font-family="Apple SD Gothic Neo, Arial" font-size="20" font-weight="bold" text-anchor="middle">Coinone</text><rect width="225" height="60" x="925" y="100" fill="#4b5563"/><circle cx="960" cy="130" r="18" fill="#f59e0b"/><text x="1015" y="137" fill="#fff" font-family="Apple SD Gothic Neo, Arial" font-size="20" font-weight="bold" text-anchor="middle">Binance</text><rect width="200" height="55" x="50" y="160" fill="#1e293b"/><text x="150" y="192" fill="#e2e8f0" font-family="Apple SD Gothic Neo, Arial" font-size="15" text-anchor="middle">API 문서</text><rect width="225" height="55" x="250" y="160" fill="#065f46"/><text x="362" y="192" fill="#10b981" font-family="Apple SD Gothic Neo, Arial" font-size="16" font-weight="bold" text-anchor="middle">⭐⭐⭐⭐⭐</text><rect width="225" height="55" x="475" y="160" fill="#1e293b"/><text x="587" y="192" fill="#94a3b8" font-family="Apple SD Gothic Neo, Arial" font-size="16" text-anchor="middle">⭐⭐⭐</text><rect width="225" height="55" x="700" y="160" fill="#1e293b"/><text x="812" y="192" fill="#94a3b8" font-family="Apple SD Gothic Neo, Arial" font-size="16" text-anchor="middle">⭐⭐⭐</text><rect width="225" height="55" x="925" y="160" fill="#1e293b"/><text x="1037" y="192" fill="#cbd5e1" font-family="Apple SD Gothic Neo, Arial" font-size="16" text-anchor="middle">⭐⭐⭐⭐⭐</text><rect width="200" height="55" x="50" y="215" fill="#1e293b"/><text x="150" y="247" fill="#e2e8f0" font-family="Apple SD Gothic Neo, Arial" font-size="15" text-anchor="middle">한글 지원</text><rect width="225" height="55" x="250" y="215" fill="#065f46"/><text x="362" y="252" fill="#10b981" font-family="Apple SD Gothic Neo, Arial" font-size="20" font-weight="bold" text-anchor="middle">✓</text><rect width="225" height="55" x="475" y="215" fill="#1e293b"/><text x="587" y="252" fill="#94a3b8" font-family="Apple SD Gothic Neo, Arial" font-size="20" text-anchor="middle">✓</text><rect width="225" height="55" x="700" y="215" fill="#1e293b"/><text x="812" y="252" fill="#94a3b8" font-family="Apple SD Gothic Neo, Arial" font-size="20" text-anchor="middle">✓</text><rect width="225" height="55" x="925" y="215" fill="#1e293b"/><text x="1037" y="252" fill="#64748b" font-family="Apple SD Gothic Neo, Arial" font-size="20" text-anchor="middle">✗</text><rect width="200" height="55" x="50" y="270" fill="#1e293b"/><text x="150" y="302" fill="#e2e8f0" font-family="Apple SD Gothic Neo, Arial" font-size="15" text-anchor="middle">거래량</text><rect width="225" height="55" x="250" y="270" fill="#065f46"/><text x="362" y="302" fill="#10b981" font-family="Apple SD Gothic Neo, Arial" font-size="14" font-weight="bold" text-anchor="middle">국내 1위</text><rect width="225" height="55" x="475" y="270" fill="#1e293b"/><text x="587" y="302" fill="#94a3b8" font-family="Apple SD Gothic Neo, Arial" font-size="14" text-anchor="middle">국내 2위</text><rect width="225" height="55" x="700" y="270" fill="#1e293b"/><text x="812" y="302" fill="#94a3b8" font-family="Apple SD Gothic Neo, Arial" font-size="14" text-anchor="middle">국내 3위</text><rect width="225" height="55" x="925" y="270" fill="#1e293b"/><text x="1037" y="302" fill="#cbd5e1" font-family="Apple SD Gothic Neo, Arial" font-size="14" text-anchor="middle">글로벌 1위</text><rect width="200" height="55" x="50" y="325" fill="#1e293b"/><text x="150" y="357" fill="#e2e8f0" font-family="Apple SD Gothic Neo, Arial" font-size="15" text-anchor="middle">코인 수</text><rect width="225" height="55" x="250" y="325" fill="#065f46"/><text x="362" y="357" fill="#10b981" font-family="Apple SD Gothic Neo, Arial" font-size="16" font-weight="bold" text-anchor="middle">200+</text><rect width="225" height="55" x="475" y="325" fill="#1e293b"/><text x="587" y="357" fill="#94a3b8" font-family="Apple SD Gothic Neo, Arial" font-size="16" text-anchor="middle">200+</text><rect width="225" height="55" x="700" y="325" fill="#1e293b"/><text x="812" y="357" fill="#94a3b8" font-family="Apple SD Gothic Neo, Arial" font-size="16" text-anchor="middle">100+</text><rect width="225" height="55" x="925" y="325" fill="#1e293b"/><text x="1037" y="357" fill="#cbd5e1" font-family="Apple SD Gothic Neo, Arial" font-size="16" text-anchor="middle">600+</text><rect width="200" height="55" x="50" y="380" fill="#1e293b"/><text x="150" y="412" fill="#e2e8f0" font-family="Apple SD Gothic Neo, Arial" font-size="15" text-anchor="middle">WebSocket</text><rect width="225" height="55" x="250" y="380" fill="#065f46"/><text x="362" y="417" fill="#10b981" font-family="Apple SD Gothic Neo, Arial" font-size="20" font-weight="bold" text-anchor="middle">✓</text><rect width="225" height="55" x="475" y="380" fill="#1e293b"/><text x="587" y="417" fill="#94a3b8" font-family="Apple SD Gothic Neo, Arial" font-size="20" text-anchor="middle">✓</text><rect width="225" height="55" x="700" y="380" fill="#1e293b"/><text x="812" y="417" fill="#94a3b8" font-family="Apple SD Gothic Neo, Arial" font-size="20" text-anchor="middle">✓</text><rect width="225" height="55" x="925" y="380" fill="#1e293b"/><text x="1037" y="417" fill="#cbd5e1" font-family="Apple SD Gothic Neo, Arial" font-size="20" text-anchor="middle">✓</text><rect width="200" height="55" x="50" y="435" fill="#1e293b"/><text x="150" y="467" fill="#e2e8f0" font-family="Apple SD Gothic Neo, Arial" font-size="15" text-anchor="middle">인증 방식</text><rect width="225" height="55" x="250" y="435" fill="#065f46"/><text x="362" y="467" fill="#10b981" font-family="Apple SD Gothic Neo, Arial" font-size="14" font-weight="bold" text-anchor="middle">JWT</text><rect width="225" height="55" x="475" y="435" fill="#1e293b"/><text x="587" y="467" fill="#94a3b8" font-family="Apple SD Gothic Neo, Arial" font-size="14" text-anchor="middle">API Key</text><rect width="225" height="55" x="700" y="435" fill="#1e293b"/><text x="812" y="467" fill="#94a3b8" font-family="Apple SD Gothic Neo, Arial" font-size="14" text-anchor="middle">API Key</text><rect width="225" height="55" x="925" y="435" fill="#1e293b"/><text x="1037" y="467" fill="#cbd5e1" font-family="Apple SD Gothic Neo, Arial" font-size="13" text-anchor="middle">Key + Secret</text><rect width="200" height="55" x="50" y="490" fill="#1e293b"/><text x="150" y="522" fill="#e2e8f0" font-family="Apple SD Gothic Neo, Arial" font-size="15" text-anchor="middle">일봉 데이터</text><rect width="225" height="55" x="250" y="490" fill="#065f46"/><text x="362" y="522" fill="#10b981" font-family="Apple SD Gothic Neo, Arial" font-size="16" font-weight="bold" text-anchor="middle">200개</text><rect width="225" height="55" x="475" y="490" fill="#1e293b"/><text x="587" y="522" fill="#94a3b8" font-family="Apple SD Gothic Neo, Arial" font-size="16" text-anchor="middle">90개</text><rect width="225" height="55" x="700" y="490" fill="#1e293b"/><text x="812" y="522" fill="#94a3b8" font-family="Apple SD Gothic Neo, Arial" font-size="16" text-anchor="middle">100개</text><rect width="225" height="55" x="925" y="490" fill="#1e293b"/><text x="1037" y="522" fill="#cbd5e1" font-family="Apple SD Gothic Neo, Arial" font-size="16" text-anchor="middle">1000개</text><rect width="200" height="55" x="50" y="545" fill="#1e293b"/><text x="150" y="577" fill="#e2e8f0" font-family="Apple SD Gothic Neo, Arial" font-size="15" text-anchor="middle">개발 난이도</text><rect width="225" height="55" x="250" y="545" fill="#065f46"/><text x="362" y="577" fill="#10b981" font-family="Apple SD Gothic Neo, Arial" font-size="16" font-weight="bold" text-anchor="middle">쉬움 ⭐</text><rect width="225" height="55" x="475" y="545" fill="#1e293b"/><text x="587" y="577" fill="#94a3b8" font-family="Apple SD Gothic Neo, Arial" font-size="16" text-anchor="middle">보통 ⭐⭐</text><rect width="225" height="55" x="700" y="545" fill="#1e293b"/><text x="812" y="577" fill="#94a3b8" font-family="Apple SD Gothic Neo, Arial" font-size="16" text-anchor="middle">보통 ⭐⭐</text><rect width="225" height="55" x="925" y="545" fill="#1e293b"/><text x="1037" y="577" fill="#cbd5e1" font-family="Apple SD Gothic Neo, Arial" font-size="16" text-anchor="middle">보통 ⭐⭐</text><rect width="1100" height="60" x="50" y="620" fill="#1e40af" rx="10"/><text x="600" y="645" fill="#fff" font-family="Apple SD Gothic Neo, Arial" font-size="18" font-weight="bold" text-anchor="middle">결론: 국내 거래는 Upbit 추천 (문서 품질 + 거래량 + 개발 편의성)</text><text x="600" y="667" fill="#e2e8f0" font-family="Apple SD Gothic Neo, Arial" font-size="14" text-anchor="middle">글로벌 거래는 Binance 추천 (코인 수 + 데이터 양)</text></svg>