<?xml version="1.0" encoding="UTF-8"?>
<svg width="1200" height="600" xmlns="http://www.w3.org/2000/svg">
    <!-- ë¸Œë¼ìš°ì € í”„ë ˆìž„ -->
    <rect width="1200" height="600" fill="#f5f5f5"/>
    <rect x="0" y="0" width="1200" height="50" fill="#2c2c2c"/>

    <!-- ë¸Œë¼ìš°ì € ë²„íŠ¼ -->
    <circle cx="20" cy="25" r="7" fill="#ff5f56"/>
    <circle cx="42" cy="25" r="7" fill="#ffbd2e"/>
    <circle cx="64" cy="25" r="7" fill="#27ca40"/>

    <!-- URL ë°” -->
    <rect x="100" y="12" width="500" height="26" rx="13" fill="#444444"/>
    <text x="120" y="31" font-family="Arial, sans-serif" font-size="12" fill="#ffffff">http://localhost:5555/</text>

    <!-- Flower í—¤ë” -->
    <rect x="0" y="50" width="1200" height="60" fill="#1a1a2e"/>
    <text x="30" y="88" font-family="Arial, sans-serif" font-size="24" font-weight="bold" fill="#ffffff">ðŸŒ¸ Flower</text>
    <text x="140" y="88" font-family="Arial, sans-serif" font-size="14" fill="#a0a0a0">Celery monitoring</text>

    <!-- íƒ­ ë©”ë‰´ -->
    <rect x="400" y="70" width="100" height="30" fill="#333355"/>
    <text x="450" y="92" font-family="Arial, sans-serif" font-size="13" fill="#ffffff" text-anchor="middle">Dashboard</text>
    <text x="550" y="92" font-family="Arial, sans-serif" font-size="13" fill="#a0a0a0" text-anchor="middle">Tasks</text>
    <text x="640" y="92" font-family="Arial, sans-serif" font-size="13" fill="#a0a0a0" text-anchor="middle">Workers</text>

    <!-- ì½˜í…ì¸  ì˜ì—­ -->
    <rect x="0" y="110" width="1200" height="490" fill="#ffffff"/>

    <!-- í†µê³„ ì¹´ë“œë“¤ -->
    <rect x="30" y="130" width="180" height="100" fill="#E3F2FD" stroke="#1976D2" stroke-width="1" rx="8"/>
    <text x="120" y="165" font-family="Arial, sans-serif" font-size="14" fill="#1976D2" text-anchor="middle">Active Tasks</text>
    <text x="120" y="205" font-family="Arial, sans-serif" font-size="36" font-weight="bold" fill="#1565C0" text-anchor="middle">3</text>

    <rect x="230" y="130" width="180" height="100" fill="#E8F5E9" stroke="#388E3C" stroke-width="1" rx="8"/>
    <text x="320" y="165" font-family="Arial, sans-serif" font-size="14" fill="#2E7D32" text-anchor="middle">Succeeded</text>
    <text x="320" y="205" font-family="Arial, sans-serif" font-size="36" font-weight="bold" fill="#1B5E20" text-anchor="middle">47</text>

    <rect x="430" y="130" width="180" height="100" fill="#FFEBEE" stroke="#C62828" stroke-width="1" rx="8"/>
    <text x="520" y="165" font-family="Arial, sans-serif" font-size="14" fill="#C62828" text-anchor="middle">Failed</text>
    <text x="520" y="205" font-family="Arial, sans-serif" font-size="36" font-weight="bold" fill="#B71C1C" text-anchor="middle">2</text>

    <rect x="630" y="130" width="180" height="100" fill="#FFF3E0" stroke="#F57C00" stroke-width="1" rx="8"/>
    <text x="720" y="165" font-family="Arial, sans-serif" font-size="14" fill="#EF6C00" text-anchor="middle">Workers</text>
    <text x="720" y="205" font-family="Arial, sans-serif" font-size="36" font-weight="bold" fill="#E65100" text-anchor="middle">1</text>

    <!-- ìµœê·¼ íƒœìŠ¤í¬ ëª©ë¡ -->
    <rect x="30" y="250" width="780" height="320" fill="#ffffff" stroke="#e0e0e0" stroke-width="1" rx="8"/>
    <text x="50" y="280" font-family="Arial, sans-serif" font-size="16" font-weight="bold" fill="#333333">Recent Tasks</text>

    <!-- í…Œì´ë¸” í—¤ë” -->
    <rect x="45" y="295" width="750" height="30" fill="#f5f5f5"/>
    <text x="65" y="315" font-family="Arial, sans-serif" font-size="12" font-weight="bold" fill="#666666">Name</text>
    <text x="350" y="315" font-family="Arial, sans-serif" font-size="12" font-weight="bold" fill="#666666">State</text>
    <text x="480" y="315" font-family="Arial, sans-serif" font-size="12" font-weight="bold" fill="#666666">Received</text>
    <text x="650" y="315" font-family="Arial, sans-serif" font-size="12" font-weight="bold" fill="#666666">Runtime</text>

    <!-- íƒœìŠ¤í¬ í–‰ë“¤ -->
    <line x1="45" y1="325" x2="795" y2="325" stroke="#e0e0e0"/>
    <text x="65" y="350" font-family="monospace" font-size="11" fill="#333333">kis.run_analysis_for_my_domestic_stocks</text>
    <rect x="340" y="337" width="70" height="20" fill="#FFF3E0" rx="3"/>
    <text x="375" y="352" font-family="Arial, sans-serif" font-size="10" fill="#EF6C00" text-anchor="middle">PROGRESS</text>
    <text x="480" y="350" font-family="Arial, sans-serif" font-size="11" fill="#666666">10:32:00</text>
    <text x="650" y="350" font-family="Arial, sans-serif" font-size="11" fill="#666666">45.2s</text>

    <line x1="45" y1="365" x2="795" y2="365" stroke="#e0e0e0"/>
    <text x="65" y="390" font-family="monospace" font-size="11" fill="#333333">kis.execute_domestic_buy_order_task</text>
    <rect x="340" y="377" width="70" height="20" fill="#E8F5E9" rx="3"/>
    <text x="375" y="392" font-family="Arial, sans-serif" font-size="10" fill="#2E7D32" text-anchor="middle">SUCCESS</text>
    <text x="480" y="390" font-family="Arial, sans-serif" font-size="11" fill="#666666">10:31:45</text>
    <text x="650" y="390" font-family="Arial, sans-serif" font-size="11" fill="#666666">2.3s</text>

    <line x1="45" y1="405" x2="795" y2="405" stroke="#e0e0e0"/>
    <text x="65" y="430" font-family="monospace" font-size="11" fill="#333333">kis.analyze_domestic_stock_task</text>
    <rect x="340" y="417" width="70" height="20" fill="#E8F5E9" rx="3"/>
    <text x="375" y="432" font-family="Arial, sans-serif" font-size="10" fill="#2E7D32" text-anchor="middle">SUCCESS</text>
    <text x="480" y="430" font-family="Arial, sans-serif" font-size="11" fill="#666666">10:31:20</text>
    <text x="650" y="430" font-family="Arial, sans-serif" font-size="11" fill="#666666">23.5s</text>

    <line x1="45" y1="445" x2="795" y2="445" stroke="#e0e0e0"/>
    <text x="65" y="470" font-family="monospace" font-size="11" fill="#333333">kis.execute_overseas_buy_order_task</text>
    <rect x="340" y="457" width="70" height="20" fill="#FFEBEE" rx="3"/>
    <text x="375" y="472" font-family="Arial, sans-serif" font-size="10" fill="#C62828" text-anchor="middle">FAILURE</text>
    <text x="480" y="470" font-family="Arial, sans-serif" font-size="11" fill="#666666">10:30:55</text>
    <text x="650" y="470" font-family="Arial, sans-serif" font-size="11" fill="#666666">1.2s</text>

    <!-- Worker ìƒíƒœ -->
    <rect x="830" y="250" width="340" height="150" fill="#ffffff" stroke="#e0e0e0" stroke-width="1" rx="8"/>
    <text x="850" y="280" font-family="Arial, sans-serif" font-size="16" font-weight="bold" fill="#333333">Worker Status</text>

    <circle cx="865" cy="315" r="8" fill="#4CAF50"/>
    <text x="885" y="320" font-family="Arial, sans-serif" font-size="14" fill="#333333">celery@raspberrypi</text>

    <text x="865" y="350" font-family="Arial, sans-serif" font-size="12" fill="#666666">Concurrency: 4</text>
    <text x="865" y="370" font-family="Arial, sans-serif" font-size="12" fill="#666666">Active: 3 | Processed: 52</text>
    <text x="865" y="390" font-family="Arial, sans-serif" font-size="12" fill="#666666">Pool: prefork</text>
</svg>