<?xml version="1.0" encoding="UTF-8"?>
<svg width="1200" height="630" xmlns="http://www.w3.org/2000/svg">
    <defs>
        <linearGradient id="bgGradient" x1="0%" y1="0%" x2="100%" y2="100%">
            <stop offset="0%" style="stop-color:#0d1b2a;stop-opacity:1" />
            <stop offset="50%" style="stop-color:#1b263b;stop-opacity:1" />
            <stop offset="100%" style="stop-color:#415a77;stop-opacity:1" />
        </linearGradient>
    </defs>

    <!-- 배경 -->
    <rect width="1200" height="630" fill="url(#bgGradient)"/>
    <!-- Background pattern: candlesticks -->
    <rect x="100" y="50" width="30" height="80" fill="#ff5252" opacity="0.05" rx="2"/>
    <rect x="200" y="100" width="25" height="60" fill="#4CAF50" opacity="0.05" rx="2"/>
    <rect x="300" y="80" width="35" height="70" fill="#ff5252" opacity="0.05" rx="2"/>
    <rect x="400" y="120" width="20" height="50" fill="#4CAF50" opacity="0.05" rx="2"/>
    <rect x="500" y="60" width="30" height="90" fill="#ff5252" opacity="0.05" rx="2"/>
    <rect x="600" y="90" width="25" height="55" fill="#4CAF50" opacity="0.05" rx="2"/>
    <rect x="700" y="70" width="30" height="75" fill="#ff5252" opacity="0.05" rx="2"/>
    <rect x="800" y="110" width="20" height="45" fill="#4CAF50" opacity="0.05" rx="2"/>
    <rect x="900" y="55" width="35" height="85" fill="#ff5252" opacity="0.05" rx="2"/>
    <rect x="1000" y="95" width="25" height="50" fill="#4CAF50" opacity="0.05" rx="2"/>
    <rect x="1100" y="75" width="30" height="70" fill="#4CAF50" opacity="0.05" rx="2"/>

    <!-- 제목 -->
    <text x="600" y="140" font-family="'Noto Sans KR', 'Inter', 'Arial', sans-serif" font-size="52" font-weight="bold" fill="#ffffff" text-anchor="middle">
        KIS 국내/해외 주식
    </text>
    <text x="600" y="210" font-family="'Noto Sans KR', 'Inter', 'Arial', sans-serif" font-size="52" font-weight="bold" fill="#f4d03f" text-anchor="middle">
        자동 매매 시스템
    </text>
    <!-- 부제목 -->
    <text x="600" y="290" font-family="'Noto Sans KR', 'Inter', 'Arial', sans-serif" font-size="30" fill="#778da9" text-anchor="middle">
        Celery + AI 분석 기반 스마트 트레이딩
    </text>

    <!-- 아이콘들 -->
    <g transform="translate(390, 380)">
        <rect x="0" y="0" width="100" height="100" rx="10" fill="#2196F3" opacity="0.9"/>
        <g transform="translate(26, 26) scale(2.0)"><path d="M12 8V4H8" fill="none" stroke="#ffffff" stroke-width="2" stroke-linecap="round" stroke-linejoin="round"/>
<path d="M12 4h4v4h-4z" fill="none" stroke="#ffffff" stroke-width="2" stroke-linecap="round" stroke-linejoin="round"/>
<path d="M8 8v8h8V8" fill="none" stroke="#ffffff" stroke-width="2" stroke-linecap="round" stroke-linejoin="round"/>
<path d="M2 14h4" fill="none" stroke="#ffffff" stroke-width="2" stroke-linecap="round" stroke-linejoin="round"/>
<path d="M20 14h2" fill="none" stroke="#ffffff" stroke-width="2" stroke-linecap="round" stroke-linejoin="round"/>
<path d="M12 16v4" fill="none" stroke="#ffffff" stroke-width="2" stroke-linecap="round" stroke-linejoin="round"/>
<path d="M8 20h8" fill="none" stroke="#ffffff" stroke-width="2" stroke-linecap="round" stroke-linejoin="round"/></g>
        <text x="50" y="85" font-family="'Noto Sans KR', 'Inter', 'Arial', sans-serif" font-size="14" fill="#ffffff" text-anchor="middle">AI 분석</text>
        <rect x="130" y="0" width="100" height="100" rx="10" fill="#8BC34A" opacity="0.9"/>
        <g transform="translate(156, 26) scale(2.0)"><path d="M13 2 3 14h9l-1 8 10-12h-9l1-8z" fill="none" stroke="#ffffff" stroke-width="2" stroke-linecap="round" stroke-linejoin="round"/></g>
        <text x="180" y="85" font-family="'Noto Sans KR', 'Inter', 'Arial', sans-serif" font-size="14" fill="#ffffff" text-anchor="middle">Celery</text>
        <rect x="260" y="0" width="100" height="100" rx="10" fill="#FF9800" opacity="0.9"/>
        <g transform="translate(286, 26) scale(2.0)"><path d="M16 7h6v6" fill="none" stroke="#ffffff" stroke-width="2" stroke-linecap="round" stroke-linejoin="round"/>
<path d="m22 7-8.5 8.5-5-5L2 17" fill="none" stroke="#ffffff" stroke-width="2" stroke-linecap="round" stroke-linejoin="round"/></g>
        <text x="310" y="85" font-family="'Noto Sans KR', 'Inter', 'Arial', sans-serif" font-size="14" fill="#ffffff" text-anchor="middle">자동 매매</text>
        <rect x="390" y="0" width="100" height="100" rx="10" fill="#9C27B0" opacity="0.9"/>
        <g transform="translate(416, 26) scale(2.0)"><path d="M22 2 11 13" fill="none" stroke="#ffffff" stroke-width="2" stroke-linecap="round" stroke-linejoin="round"/>
<path d="M22 2l-7 20-4-9-9-4 20-7z" fill="none" stroke="#ffffff" stroke-width="2" stroke-linecap="round" stroke-linejoin="round"/></g>
        <text x="440" y="85" font-family="'Noto Sans KR', 'Inter', 'Arial', sans-serif" font-size="14" fill="#ffffff" text-anchor="middle">Telegram</text>
    </g>
</svg>