<svg xmlns="http://www.w3.org/2000/svg" width="1200" height="630"><defs><linearGradient id="bgGradient" x1="0%" x2="100%" y1="0%" y2="100%"><stop offset="0%" style="stop-color:#0c0c0c;stop-opacity:1"/><stop offset="50%" style="stop-color:#111;stop-opacity:1"/><stop offset="100%" style="stop-color:#1a1a1a;stop-opacity:1"/></linearGradient></defs><rect width="1200" height="630" fill="url(#bgGradient)"/><line x1="100" x2="100" y1="0" y2="630" stroke="#fff" stroke-width="1" opacity=".05"/><line x1="200" x2="200" y1="0" y2="630" stroke="#fff" stroke-width="1" opacity=".05"/><line x1="300" x2="300" y1="0" y2="630" stroke="#fff" stroke-width="1" opacity=".05"/><line x1="400" x2="400" y1="0" y2="630" stroke="#fff" stroke-width="1" opacity=".05"/><line x1="500" x2="500" y1="0" y2="630" stroke="#fff" stroke-width="1" opacity=".05"/><line x1="600" x2="600" y1="0" y2="630" stroke="#fff" stroke-width="1" opacity=".05"/><line x1="700" x2="700" y1="0" y2="630" stroke="#fff" stroke-width="1" opacity=".05"/><line x1="800" x2="800" y1="0" y2="630" stroke="#fff" stroke-width="1" opacity=".05"/><line x1="900" x2="900" y1="0" y2="630" stroke="#fff" stroke-width="1" opacity=".05"/><line x1="1000" x2="1000" y1="0" y2="630" stroke="#fff" stroke-width="1" opacity=".05"/><line x1="1100" x2="1100" y1="0" y2="630" stroke="#fff" stroke-width="1" opacity=".05"/><line x1="0" x2="1200" y1="100" y2="100" stroke="#fff" stroke-width="1" opacity=".05"/><line x1="0" x2="1200" y1="200" y2="200" stroke="#fff" stroke-width="1" opacity=".05"/><line x1="0" x2="1200" y1="300" y2="300" stroke="#fff" stroke-width="1" opacity=".05"/><line x1="0" x2="1200" y1="400" y2="400" stroke="#fff" stroke-width="1" opacity=".05"/><line x1="0" x2="1200" y1="500" y2="500" stroke="#fff" stroke-width="1" opacity=".05"/><line x1="0" x2="1200" y1="600" y2="600" stroke="#fff" stroke-width="1" opacity=".05"/><text x="600" y="140" fill="#fff" font-family="'Noto Sans KR', 'Inter', 'Arial', sans-serif" font-size="52" font-weight="bold" text-anchor="middle">MCP 서버로 AI 트레이딩</text><text x="600" y="210" fill="#00d4aa" font-family="'Noto Sans KR', 'Inter', 'Arial', sans-serif" font-size="52" font-weight="bold" text-anchor="middle">도구 만들기</text><text x="600" y="290" fill="#778da9" font-family="'Noto Sans KR', 'Inter', 'Arial', sans-serif" font-size="30" text-anchor="middle">Claude가 직접 주식을 분석하고 매매하는 시스템</text><g transform="translate(455, 380)"><rect width="100" height="100" x="0" y="0" fill="#2196F3" opacity=".9" rx="10"/><g><path fill="none" stroke="#fff" stroke-linecap="round" stroke-linejoin="round" stroke-width="2" d="M5 10h14" transform="translate(26, 26) scale(2.0)"/><path fill="none" stroke="#fff" stroke-linecap="round" stroke-linejoin="round" stroke-width="2" d="M5 14h14" transform="translate(26, 26) scale(2.0)"/><path fill="none" stroke="#fff" stroke-linecap="round" stroke-linejoin="round" stroke-width="2" d="M19 3H5a2 2 0 0 0-2 2v14a2 2 0 0 0 2 2h14a2 2 0 0 0 2-2V5a2 2 0 0 0-2-2z" transform="translate(26, 26) scale(2.0)"/></g><text x="50" y="85" fill="#fff" font-family="'Noto Sans KR', 'Inter', 'Arial', sans-serif" font-size="14" text-anchor="middle">MCP</text><rect width="100" height="100" x="130" y="0" fill="#4CAF50" opacity=".9" rx="10"/><g><path fill="none" stroke="#fff" stroke-linecap="round" stroke-linejoin="round" stroke-width="2" d="m16 18 6-6-6-6" transform="translate(156, 26) scale(2.0)"/><path fill="none" stroke="#fff" stroke-linecap="round" stroke-linejoin="round" stroke-width="2" d="M8 6l-6 6 6 6" transform="translate(156, 26) scale(2.0)"/></g><text x="180" y="85" fill="#fff" font-family="'Noto Sans KR', 'Inter', 'Arial', sans-serif" font-size="14" text-anchor="middle">API</text><rect width="100" height="100" x="260" y="0" fill="#FF9800" opacity=".9" rx="10"/><g><path fill="none" stroke="#fff" stroke-linecap="round" stroke-linejoin="round" stroke-width="2" d="M12 8c4.97 0 9-1.79 9-4s-4.03-4-9-4-9 1.79-9 4 4.03 4 9 4" transform="translate(286, 26) scale(2.0)"/><path fill="none" stroke="#fff" stroke-linecap="round" stroke-linejoin="round" stroke-width="2" d="M12 8v12" transform="translate(286, 26) scale(2.0)"/><path fill="none" stroke="#fff" stroke-linecap="round" stroke-linejoin="round" stroke-width="2" d="M12 20c-4.97 0-9-1.79-9-4" transform="translate(286, 26) scale(2.0)"/><path fill="none" stroke="#fff" stroke-linecap="round" stroke-linejoin="round" stroke-width="2" d="M12 20c4.97 0 9-1.79 9-4" transform="translate(286, 26) scale(2.0)"/></g><text x="310" y="85" fill="#fff" font-family="'Noto Sans KR', 'Inter', 'Arial', sans-serif" font-size="14" text-anchor="middle">DB</text></g></svg>