<?xml version="1.0" encoding="UTF-8"?>
<svg width="1200" height="630" xmlns="http://www.w3.org/2000/svg">
    <defs>
        <linearGradient id="bgGradient" x1="0%" y1="0%" x2="100%" y2="100%">
            <stop offset="0%" style="stop-color:#0c0c0c;stop-opacity:1" />
            <stop offset="50%" style="stop-color:#111111;stop-opacity:1" />
            <stop offset="100%" style="stop-color:#1a1a1a;stop-opacity:1" />
        </linearGradient>
    </defs>

    <!-- 배경 -->
    <rect width="1200" height="630" fill="url(#bgGradient)"/>
    <!-- Background pattern: grid -->
    <line x1="100" y1="0" x2="100" y2="630" stroke="#ffffff" stroke-width="1" opacity="0.05"/>
    <line x1="200" y1="0" x2="200" y2="630" stroke="#ffffff" stroke-width="1" opacity="0.05"/>
    <line x1="300" y1="0" x2="300" y2="630" stroke="#ffffff" stroke-width="1" opacity="0.05"/>
    <line x1="400" y1="0" x2="400" y2="630" stroke="#ffffff" stroke-width="1" opacity="0.05"/>
    <line x1="500" y1="0" x2="500" y2="630" stroke="#ffffff" stroke-width="1" opacity="0.05"/>
    <line x1="600" y1="0" x2="600" y2="630" stroke="#ffffff" stroke-width="1" opacity="0.05"/>
    <line x1="700" y1="0" x2="700" y2="630" stroke="#ffffff" stroke-width="1" opacity="0.05"/>
    <line x1="800" y1="0" x2="800" y2="630" stroke="#ffffff" stroke-width="1" opacity="0.05"/>
    <line x1="900" y1="0" x2="900" y2="630" stroke="#ffffff" stroke-width="1" opacity="0.05"/>
    <line x1="1000" y1="0" x2="1000" y2="630" stroke="#ffffff" stroke-width="1" opacity="0.05"/>
    <line x1="1100" y1="0" x2="1100" y2="630" stroke="#ffffff" stroke-width="1" opacity="0.05"/>
    <line x1="0" y1="100" x2="1200" y2="100" stroke="#ffffff" stroke-width="1" opacity="0.05"/>
    <line x1="0" y1="200" x2="1200" y2="200" stroke="#ffffff" stroke-width="1" opacity="0.05"/>
    <line x1="0" y1="300" x2="1200" y2="300" stroke="#ffffff" stroke-width="1" opacity="0.05"/>
    <line x1="0" y1="400" x2="1200" y2="400" stroke="#ffffff" stroke-width="1" opacity="0.05"/>
    <line x1="0" y1="500" x2="1200" y2="500" stroke="#ffffff" stroke-width="1" opacity="0.05"/>
    <line x1="0" y1="600" x2="1200" y2="600" stroke="#ffffff" stroke-width="1" opacity="0.05"/>

    <!-- 제목 -->
    <text x="600" y="140" font-family="'Noto Sans KR', 'Inter', 'Arial', sans-serif" font-size="52" font-weight="bold" fill="#ffffff" text-anchor="middle">
        MCP 서버로 AI 트레이딩
    </text>
    <text x="600" y="210" font-family="'Noto Sans KR', 'Inter', 'Arial', sans-serif" font-size="52" font-weight="bold" fill="#00d4aa" text-anchor="middle">
        도구 만들기
    </text>
    <!-- 부제목 -->
    <text x="600" y="290" font-family="'Noto Sans KR', 'Inter', 'Arial', sans-serif" font-size="30" fill="#778da9" text-anchor="middle">
        Claude가 직접 주식을 분석하고 매매하는 시스템
    </text>

    <!-- 아이콘들 -->
    <g transform="translate(455, 380)">
        <rect x="0" y="0" width="100" height="100" rx="10" fill="#2196F3" opacity="0.9"/>
        <g transform="translate(26, 26) scale(2.0)"><path d="M5 10h14" fill="none" stroke="#ffffff" stroke-width="2" stroke-linecap="round" stroke-linejoin="round"/>
<path d="M5 14h14" fill="none" stroke="#ffffff" stroke-width="2" stroke-linecap="round" stroke-linejoin="round"/>
<path d="M19 3H5a2 2 0 0 0-2 2v14a2 2 0 0 0 2 2h14a2 2 0 0 0 2-2V5a2 2 0 0 0-2-2z" fill="none" stroke="#ffffff" stroke-width="2" stroke-linecap="round" stroke-linejoin="round"/></g>
        <text x="50" y="85" font-family="'Noto Sans KR', 'Inter', 'Arial', sans-serif" font-size="14" fill="#ffffff" text-anchor="middle">MCP</text>
        <rect x="130" y="0" width="100" height="100" rx="10" fill="#4CAF50" opacity="0.9"/>
        <g transform="translate(156, 26) scale(2.0)"><path d="m16 18 6-6-6-6" fill="none" stroke="#ffffff" stroke-width="2" stroke-linecap="round" stroke-linejoin="round"/>
<path d="M8 6l-6 6 6 6" fill="none" stroke="#ffffff" stroke-width="2" stroke-linecap="round" stroke-linejoin="round"/></g>
        <text x="180" y="85" font-family="'Noto Sans KR', 'Inter', 'Arial', sans-serif" font-size="14" fill="#ffffff" text-anchor="middle">API</text>
        <rect x="260" y="0" width="100" height="100" rx="10" fill="#FF9800" opacity="0.9"/>
        <g transform="translate(286, 26) scale(2.0)"><path d="M12 8c4.97 0 9-1.79 9-4s-4.03-4-9-4-9 1.79-9 4 4.03 4 9 4" fill="none" stroke="#ffffff" stroke-width="2" stroke-linecap="round" stroke-linejoin="round"/>
<path d="M12 8v12" fill="none" stroke="#ffffff" stroke-width="2" stroke-linecap="round" stroke-linejoin="round"/>
<path d="M12 20c-4.97 0-9-1.79-9-4" fill="none" stroke="#ffffff" stroke-width="2" stroke-linecap="round" stroke-linejoin="round"/>
<path d="M12 20c4.97 0 9-1.79 9-4" fill="none" stroke="#ffffff" stroke-width="2" stroke-linecap="round" stroke-linejoin="round"/></g>
        <text x="310" y="85" font-family="'Noto Sans KR', 'Inter', 'Arial', sans-serif" font-size="14" fill="#ffffff" text-anchor="middle">DB</text>
    </g>
</svg>