<svg xmlns="http://www.w3.org/2000/svg" width="1400" height="1000"><defs><marker id="arrowhead" markerHeight="7" markerWidth="10" orient="auto" refX="10" refY="3.5"><polygon fill="#333" points="0 0 10 3.5 0 7"/></marker><marker id="arrowheadRed" markerHeight="7" markerWidth="10" orient="auto" refX="10" refY="3.5"><polygon fill="#E91E63" points="0 0 10 3.5 0 7"/></marker><marker id="arrowheadBlue" markerHeight="7" markerWidth="10" orient="auto" refX="10" refY="3.5"><polygon fill="#00ACC1" points="0 0 10 3.5 0 7"/></marker><marker id="arrowheadOrange" markerHeight="7" markerWidth="10" orient="auto" refX="10" refY="3.5"><polygon fill="#E6522C" points="0 0 10 3.5 0 7"/></marker><marker id="arrowheadTeal" markerHeight="7" markerWidth="10" orient="auto" refX="10" refY="3.5"><polygon fill="#26A69A" points="0 0 10 3.5 0 7"/></marker></defs><rect width="1400" height="1000" fill="#fff"/><text x="700" y="50" fill="#1a1a2e" font-family="Arial, sans-serif" font-size="40" font-weight="bold" text-anchor="middle">Grafana 관찰성 스택 아키텍처</text><rect width="280" height="150" x="55" y="125" fill="#ccc" rx="5"/><rect width="280" height="150" x="50" y="120" fill="#4CAF50" stroke="#333" stroke-width="2" rx="5"/><text x="190" y="180" fill="#fff" font-family="Arial, sans-serif" font-size="24" font-weight="bold" text-anchor="middle">FastAPI App</text><text x="190" y="210" fill="#fff" font-family="Arial, sans-serif" font-size="20" text-anchor="middle">+ Middleware</text><rect width="280" height="80" x="55" y="305" fill="#ccc" rx="5"/><rect width="280" height="80" x="50" y="300" fill="#66BB6A" stroke="#333" stroke-width="2" rx="5"/><text x="190" y="350" fill="#fff" font-family="Arial, sans-serif" font-size="24" font-weight="bold" text-anchor="middle">TelemetryManager</text><rect width="280" height="80" x="55" y="405" fill="#ccc" rx="5"/><rect width="280" height="80" x="50" y="400" fill="#81C784" stroke="#333" stroke-width="2" rx="5"/><text x="190" y="450" fill="#fff" font-family="Arial, sans-serif" font-size="24" font-weight="bold" text-anchor="middle">ErrorReporter</text><rect width="200" height="100" x="425" y="255" fill="#ccc" rx="5"/><rect width="200" height="100" x="420" y="250" fill="#9C27B0" stroke="#333" stroke-width="2" rx="5"/><text x="520" y="290" fill="#fff" font-family="Arial, sans-serif" font-size="22" font-weight="bold" text-anchor="middle">OTLP Exporter</text><text x="520" y="320" fill="#fff" font-family="Arial, sans-serif" font-size="18" text-anchor="middle">gRPC: 4317</text><rect width="200" height="120" x="755" y="125" fill="#ccc" rx="5"/><rect width="200" height="120" x="750" y="120" fill="#F46800" stroke="#333" stroke-width="2" rx="5"/><text x="850" y="160" fill="#fff" font-family="Arial, sans-serif" font-size="22" font-weight="bold" text-anchor="middle">Grafana</text><text x="850" y="185" fill="#fff" font-family="Arial, sans-serif" font-size="18" text-anchor="middle">Dashboard</text><text x="850" y="210" fill="#fff" font-family="Arial, sans-serif" font-size="18" text-anchor="middle">:3000</text><rect width="200" height="120" x="1005" y="125" fill="#ccc" rx="5"/><rect width="200" height="120" x="1000" y="120" fill="#E91E63" stroke="#333" stroke-width="2" rx="5"/><text x="1100" y="160" fill="#fff" font-family="Arial, sans-serif" font-size="22" font-weight="bold" text-anchor="middle">Tempo</text><text x="1100" y="185" fill="#fff" font-family="Arial, sans-serif" font-size="18" text-anchor="middle">Traces</text><text x="1100" y="210" fill="#fff" font-family="Arial, sans-serif" font-size="18" text-anchor="middle">:3200</text><rect width="200" height="120" x="755" y="285" fill="#ccc" rx="5"/><rect width="200" height="120" x="750" y="280" fill="#00ACC1" stroke="#333" stroke-width="2" rx="5"/><text x="850" y="320" fill="#fff" font-family="Arial, sans-serif" font-size="22" font-weight="bold" text-anchor="middle">Loki</text><text x="850" y="345" fill="#fff" font-family="Arial, sans-serif" font-size="18" text-anchor="middle">Logs</text><text x="850" y="370" fill="#fff" font-family="Arial, sans-serif" font-size="18" text-anchor="middle">:3100</text><rect width="200" height="120" x="1005" y="285" fill="#ccc" rx="5"/><rect width="200" height="120" x="1000" y="280" fill="#E6522C" stroke="#333" stroke-width="2" rx="5"/><text x="1100" y="320" fill="#fff" font-family="Arial, sans-serif" font-size="22" font-weight="bold" text-anchor="middle">Prometheus</text><text x="1100" y="345" fill="#fff" font-family="Arial, sans-serif" font-size="18" text-anchor="middle">Metrics</text><text x="1100" y="370" fill="#fff" font-family="Arial, sans-serif" font-size="18" text-anchor="middle">:9090</text><rect width="200" height="100" x="880" y="445" fill="#ccc" rx="5"/><rect width="200" height="100" x="875" y="440" fill="#26A69A" stroke="#333" stroke-width="2" rx="5"/><text x="975" y="480" fill="#fff" font-family="Arial, sans-serif" font-size="22" font-weight="bold" text-anchor="middle">Promtail</text><text x="975" y="510" fill="#fff" font-family="Arial, sans-serif" font-size="18" text-anchor="middle">Log Collector</text><rect width="200" height="80" x="880" y="585" fill="#ccc" rx="5"/><rect width="200" height="80" x="875" y="580" fill="#607D8B" stroke="#333" stroke-width="2" rx="5"/><text x="975" y="610" fill="#fff" font-family="Arial, sans-serif" font-size="22" font-weight="bold" text-anchor="middle">Docker</text><text x="975" y="640" fill="#fff" font-family="Arial, sans-serif" font-size="18" text-anchor="middle">Containers</text><rect width="280" height="80" x="55" y="525" fill="#ccc" rx="5"/><rect width="280" height="80" x="50" y="520" fill="#08C" stroke="#333" stroke-width="2" rx="5"/><text x="190" y="570" fill="#fff" font-family="Arial, sans-serif" font-size="24" font-weight="bold" text-anchor="middle">Telegram Bot</text><line x1="330" x2="420" y1="195" y2="280" stroke="#333" stroke-width="3" marker-end="url(#arrowhead)"/><line x1="330" x2="420" y1="340" y2="310" stroke="#333" stroke-width="3" marker-end="url(#arrowhead)"/><line x1="620" x2="750" y1="280" y2="180" stroke="#E91E63" stroke-width="3" marker-end="url(#arrowheadRed)"/><line x1="620" x2="1000" y1="300" y2="180" stroke="#E91E63" stroke-width="3" marker-end="url(#arrowheadRed)"/><line x1="620" x2="1000" y1="310" y2="340" stroke="#E6522C" stroke-width="3" marker-end="url(#arrowheadOrange)"/><line x1="190" x2="190" y1="480" y2="520" stroke="#08C" stroke-width="3" marker-end="url(#arrowhead)"/><line x1="975" x2="975" y1="580" y2="540" stroke="#26A69A" stroke-width="3" marker-end="url(#arrowheadTeal)"/><line x1="975" x2="950" y1="440" y2="400" stroke="#00ACC1" stroke-width="3" marker-end="url(#arrowheadBlue)"/><line x1="950" x2="1000" y1="180" y2="180" stroke="#666" stroke-dasharray="5 5" stroke-width="2"/><line x1="850" x2="850" y1="240" y2="280" stroke="#666" stroke-dasharray="5 5" stroke-width="2"/><line x1="950" x2="1100" y1="240" y2="280" stroke="#666" stroke-dasharray="5 5" stroke-width="2"/><text x="700" y="730" fill="#333" font-family="Arial, sans-serif" font-size="20" font-weight="bold" text-anchor="middle">핵심 기능:</text><text x="700" y="770" fill="#555" font-family="Arial, sans-serif" font-size="18" text-anchor="middle">• Trace-to-Log 연동으로 트레이스와 로그 통합</text><text x="700" y="800" fill="#555" font-family="Arial, sans-serif" font-size="18" text-anchor="middle">• Promtail이 Docker 로그 자동 수집</text><text x="700" y="830" fill="#555" font-family="Arial, sans-serif" font-size="18" text-anchor="middle">• Telegram으로 실시간 에러 알림</text><text x="700" y="860" fill="#555" font-family="Arial, sans-serif" font-size="18" text-anchor="middle">• Raspberry Pi 5 최적화 (CPU/메모리 제한)</text><text x="700" y="920" fill="#999" font-family="Arial, sans-serif" font-size="16" text-anchor="middle">OpenTelemetry 표준 사용으로 벤더 종속 없음</text><text x="700" y="950" fill="#999" font-family="Arial, sans-serif" font-size="16" text-anchor="middle">SigNoz에서 Grafana Stack으로 마이그레이션 (환경 변수만 변경)</text></svg>