<svg xmlns="http://www.w3.org/2000/svg" viewBox="0 0 1100 800"><rect width="1100" height="800" fill="#fff"/><rect width="1100" height="50" x="0" y="0" fill="#2c3e50"/><circle cx="20" cy="25" r="8" fill="#e74c3c"/><circle cx="45" cy="25" r="8" fill="#f39c12"/><circle cx="70" cy="25" r="8" fill="#27ae60"/><text x="550" y="33" fill="#fff" font-family="Arial, sans-serif" font-size="14" text-anchor="middle">http://localhost:3301 - SigNoz Dashboard</text><text x="550" y="85" fill="#2c3e50" font-family="Arial, sans-serif" font-size="22" font-weight="bold" text-anchor="middle">Auto Trader - 실시간 모니터링 대시보드</text><rect width="240" height="100" x="50" y="110" fill="#3498db" stroke="#2980b9" stroke-width="2" rx="8"/><text x="170" y="140" fill="#fff" font-family="Arial, sans-serif" font-size="13" text-anchor="middle">총 요청 수</text><text x="170" y="175" fill="#fff" font-family="Arial, sans-serif" font-size="32" font-weight="bold" text-anchor="middle">1,234</text><text x="170" y="195" fill="#ecf0f1" font-family="Arial, sans-serif" font-size="11" text-anchor="middle">requests/hr</text><rect width="240" height="100" x="320" y="110" fill="#27ae60" stroke="#229954" stroke-width="2" rx="8"/><text x="440" y="140" fill="#fff" font-family="Arial, sans-serif" font-size="13" text-anchor="middle">평균 응답 시간</text><text x="440" y="175" fill="#fff" font-family="Arial, sans-serif" font-size="32" font-weight="bold" text-anchor="middle">2.3s</text><text x="440" y="195" fill="#ecf0f1" font-family="Arial, sans-serif" font-size="11" text-anchor="middle">P50 latency</text><rect width="240" height="100" x="590" y="110" fill="#e74c3c" stroke="#c0392b" stroke-width="2" rx="8"/><text x="710" y="140" fill="#fff" font-family="Arial, sans-serif" font-size="13" text-anchor="middle">에러율</text><text x="710" y="175" fill="#fff" font-family="Arial, sans-serif" font-size="32" font-weight="bold" text-anchor="middle">0.8%</text><text x="710" y="195" fill="#ecf0f1" font-family="Arial, sans-serif" font-size="11" text-anchor="middle">error rate</text><rect width="190" height="100" x="860" y="110" fill="#9b59b6" stroke="#8e44ad" stroke-width="2" rx="8"/><text x="955" y="140" fill="#fff" font-family="Arial, sans-serif" font-size="13" text-anchor="middle">활성 Span</text><text x="955" y="175" fill="#fff" font-family="Arial, sans-serif" font-size="32" font-weight="bold" text-anchor="middle">42</text><text x="955" y="195" fill="#ecf0f1" font-family="Arial, sans-serif" font-size="11" text-anchor="middle">active traces</text><rect width="500" height="240" x="50" y="240" fill="#f8f9fa" stroke="#bdc3c7" stroke-width="2" rx="8"/><text x="300" y="270" fill="#2c3e50" font-family="Arial, sans-serif" font-size="15" font-weight="bold" text-anchor="middle">응답 시간 분포 (P50, P95, P99)</text><g stroke="#ecf0f1" stroke-width="1"><line x1="80" x2="520" y1="300" y2="300"/><line x1="80" x2="520" y1="340" y2="340"/><line x1="80" x2="520" y1="380" y2="380"/><line x1="80" x2="520" y1="420" y2="420"/><line x1="80" x2="520" y1="460" y2="460"/></g><text x="70" y="305" fill="#7f8c8d" font-family="Arial, sans-serif" font-size="10" text-anchor="end">8s</text><text x="70" y="345" fill="#7f8c8d" font-family="Arial, sans-serif" font-size="10" text-anchor="end">6s</text><text x="70" y="385" fill="#7f8c8d" font-family="Arial, sans-serif" font-size="10" text-anchor="end">4s</text><text x="70" y="425" fill="#7f8c8d" font-family="Arial, sans-serif" font-size="10" text-anchor="end">2s</text><text x="70" y="465" fill="#7f8c8d" font-family="Arial, sans-serif" font-size="10" text-anchor="end">0s</text><path fill="none" stroke="#3498db" stroke-width="3" d="M 80 445 L 140 440 L 200 435 L 260 438 L 320 442 L 380 440 L 440 437 L 500 435 L 520 433"/><text x="525" y="438" fill="#3498db" font-family="Arial, sans-serif" font-size="10">P50: 2.1s</text><path fill="none" stroke="#f39c12" stroke-width="3" d="M 80 400 L 140 395 L 200 390 L 260 392 L 320 388 L 380 385 L 440 383 L 500 380 L 520 378"/><text x="525" y="383" fill="#f39c12" font-family="Arial, sans-serif" font-size="10">P95: 4.5s</text><path fill="none" stroke="#e74c3c" stroke-width="3" d="M 80 340 L 140 338 L 200 335 L 260 330 L 320 328 L 380 325 L 440 323 L 500 320 L 520 318"/><text x="525" y="323" fill="#e74c3c" font-family="Arial, sans-serif" font-size="10">P99: 6.8s</text><rect width="470" height="240" x="580" y="240" fill="#f8f9fa" stroke="#bdc3c7" stroke-width="2" rx="8"/><text x="815" y="270" fill="#2c3e50" font-family="Arial, sans-serif" font-size="15" font-weight="bold" text-anchor="middle">엔드포인트별 요청 분포</text><rect width="380" height="30" x="610" y="300" fill="#ecf0f1" rx="3"/><rect width="270" height="30" x="610" y="300" fill="#3498db" rx="3"/><text x="620" y="320" fill="#fff" font-family="Arial, sans-serif" font-size="11">/api/analyze/upbit/*</text><text x="900" y="320" fill="#2c3e50" font-family="Arial, sans-serif" font-size="11">45%</text><rect width="380" height="30" x="610" y="345" fill="#ecf0f1" rx="3"/><rect width="190" height="30" x="610" y="345" fill="#27ae60" rx="3"/><text x="620" y="365" fill="#fff" font-family="Arial, sans-serif" font-size="11">/api/analyze/yahoo/*</text><text x="900" y="365" fill="#2c3e50" font-family="Arial, sans-serif" font-size="11">25%</text><rect width="380" height="30" x="610" y="390" fill="#ecf0f1" rx="3"/><rect width="152" height="30" x="610" y="390" fill="#9b59b6" rx="3"/><text x="620" y="410" fill="#fff" font-family="Arial, sans-serif" font-size="11">/analysis-results/</text><text x="900" y="410" fill="#2c3e50" font-family="Arial, sans-serif" font-size="11">20%</text><rect width="380" height="30" x="610" y="435" fill="#ecf0f1" rx="3"/><rect width="76" height="30" x="610" y="435" fill="#e67e22" rx="3"/><text x="620" y="455" fill="#fff" font-family="Arial, sans-serif" font-size="11">/health</text><text x="900" y="455" fill="#2c3e50" font-family="Arial, sans-serif" font-size="11">10%</text><rect width="500" height="240" x="50" y="510" fill="#f8f9fa" stroke="#bdc3c7" stroke-width="2" rx="8"/><text x="300" y="540" fill="#2c3e50" font-family="Arial, sans-serif" font-size="15" font-weight="bold" text-anchor="middle">분석 실행 횟수 (자산 타입별)</text><circle cx="200" cy="630" r="80" fill="#3498db"/><path fill="#27ae60" d="M 200 630 L 200 550 A 80 80 0 0 1 254.64 590.72 Z"/><path fill="#e74c3c" d="M 200 630 L 254.64 590.72 A 80 80 0 0 1 229.28 708.28 Z"/><rect width="15" height="15" x="320" y="590" fill="#3498db"/><text x="340" y="602" fill="#2c3e50" font-family="Arial, sans-serif" font-size="12">암호화폐 (60%)</text><rect width="15" height="15" x="320" y="620" fill="#27ae60"/><text x="340" y="632" fill="#2c3e50" font-family="Arial, sans-serif" font-size="12">미국 주식 (30%)</text><rect width="15" height="15" x="320" y="650" fill="#e74c3c"/><text x="340" y="662" fill="#2c3e50" font-family="Arial, sans-serif" font-size="12">국내 주식 (10%)</text><rect width="470" height="240" x="580" y="510" fill="#f8f9fa" stroke="#bdc3c7" stroke-width="2" rx="8"/><text x="815" y="540" fill="#2c3e50" font-family="Arial, sans-serif" font-size="15" font-weight="bold" text-anchor="middle">API 호출 성공률</text><text x="610" y="585" fill="#2c3e50" font-family="Arial, sans-serif" font-size="12">Upbit API</text><rect width="300" height="20" x="720" y="570" fill="#ecf0f1" rx="3"/><rect width="298" height="20" x="720" y="570" fill="#27ae60" rx="3"/><text x="1030" y="585" fill="#27ae60" font-family="Arial, sans-serif" font-size="12" font-weight="bold">99.5%</text><text x="610" y="625" fill="#2c3e50" font-family="Arial, sans-serif" font-size="12">Yahoo Finance</text><rect width="300" height="20" x="720" y="610" fill="#ecf0f1" rx="3"/><rect width="296" height="20" x="720" y="610" fill="#27ae60" rx="3"/><text x="1030" y="625" fill="#27ae60" font-family="Arial, sans-serif" font-size="12" font-weight="bold">98.8%</text><text x="610" y="665" fill="#2c3e50" font-family="Arial, sans-serif" font-size="12">KIS API</text><rect width="300" height="20" x="720" y="650" fill="#ecf0f1" rx="3"/><rect width="291" height="20" x="720" y="650" fill="#f39c12" rx="3"/><text x="1030" y="665" fill="#f39c12" font-family="Arial, sans-serif" font-size="12" font-weight="bold">97.2%</text><text x="610" y="705" fill="#2c3e50" font-family="Arial, sans-serif" font-size="12">Gemini AI</text><rect width="300" height="20" x="720" y="690" fill="#ecf0f1" rx="3"/><rect width="300" height="20" x="720" y="690" fill="#27ae60" rx="3"/><text x="1030" y="705" fill="#27ae60" font-family="Arial, sans-serif" font-size="12" font-weight="bold">100%</text><rect width="1100" height="40" x="0" y="760" fill="#27ae60"/><text x="30" y="785" fill="#fff" font-family="Arial, sans-serif" font-size="13">● 시스템 정상 운영 중</text><text x="1070" y="785" fill="#fff" font-family="Arial, sans-serif" font-size="11" text-anchor="end">마지막 업데이트: 방금 전</text></svg>