<svg xmlns="http://www.w3.org/2000/svg" viewBox="0 0 1100 800">
  <!-- Background -->
  <rect width="1100" height="800" fill="#ffffff"/>

  <!-- Browser Chrome -->
  <rect x="0" y="0" width="1100" height="50" fill="#2c3e50"/>
  <circle cx="20" cy="25" r="8" fill="#e74c3c"/>
  <circle cx="45" cy="25" r="8" fill="#f39c12"/>
  <circle cx="70" cy="25" r="8" fill="#27ae60"/>
  <text x="550" y="33" text-anchor="middle" font-family="Arial, sans-serif" font-size="14" fill="white">
    http://localhost:3301 - SigNoz Dashboard
  </text>

  <!-- Title -->
  <text x="550" y="85" text-anchor="middle" font-family="Arial, sans-serif" font-size="22" font-weight="bold" fill="#2c3e50">
    Auto Trader - 실시간 모니터링 대시보드
  </text>

  <!-- Summary Cards -->
  <rect x="50" y="110" width="240" height="100" rx="8" fill="#3498db" stroke="#2980b9" stroke-width="2"/>
  <text x="170" y="140" text-anchor="middle" font-family="Arial, sans-serif" font-size="13" fill="white">
    총 요청 수
  </text>
  <text x="170" y="175" text-anchor="middle" font-family="Arial, sans-serif" font-size="32" font-weight="bold" fill="white">
    1,234
  </text>
  <text x="170" y="195" text-anchor="middle" font-family="Arial, sans-serif" font-size="11" fill="#ecf0f1">
    requests/hr
  </text>

  <rect x="320" y="110" width="240" height="100" rx="8" fill="#27ae60" stroke="#229954" stroke-width="2"/>
  <text x="440" y="140" text-anchor="middle" font-family="Arial, sans-serif" font-size="13" fill="white">
    평균 응답 시간
  </text>
  <text x="440" y="175" text-anchor="middle" font-family="Arial, sans-serif" font-size="32" font-weight="bold" fill="white">
    2.3s
  </text>
  <text x="440" y="195" text-anchor="middle" font-family="Arial, sans-serif" font-size="11" fill="#ecf0f1">
    P50 latency
  </text>

  <rect x="590" y="110" width="240" height="100" rx="8" fill="#e74c3c" stroke="#c0392b" stroke-width="2"/>
  <text x="710" y="140" text-anchor="middle" font-family="Arial, sans-serif" font-size="13" fill="white">
    에러율
  </text>
  <text x="710" y="175" text-anchor="middle" font-family="Arial, sans-serif" font-size="32" font-weight="bold" fill="white">
    0.8%
  </text>
  <text x="710" y="195" text-anchor="middle" font-family="Arial, sans-serif" font-size="11" fill="#ecf0f1">
    error rate
  </text>

  <rect x="860" y="110" width="190" height="100" rx="8" fill="#9b59b6" stroke="#8e44ad" stroke-width="2"/>
  <text x="955" y="140" text-anchor="middle" font-family="Arial, sans-serif" font-size="13" fill="white">
    활성 Span
  </text>
  <text x="955" y="175" text-anchor="middle" font-family="Arial, sans-serif" font-size="32" font-weight="bold" fill="white">
    42
  </text>
  <text x="955" y="195" text-anchor="middle" font-family="Arial, sans-serif" font-size="11" fill="#ecf0f1">
    active traces
  </text>

  <!-- Response Time Chart -->
  <rect x="50" y="240" width="500" height="240" rx="8" fill="#f8f9fa" stroke="#bdc3c7" stroke-width="2"/>
  <text x="300" y="270" text-anchor="middle" font-family="Arial, sans-serif" font-size="15" font-weight="bold" fill="#2c3e50">
    응답 시간 분포 (P50, P95, P99)
  </text>

  <!-- Chart grid -->
  <g stroke="#ecf0f1" stroke-width="1">
    <line x1="80" y1="300" x2="520" y2="300"/>
    <line x1="80" y1="340" x2="520" y2="340"/>
    <line x1="80" y1="380" x2="520" y2="380"/>
    <line x1="80" y1="420" x2="520" y2="420"/>
    <line x1="80" y1="460" x2="520" y2="460"/>
  </g>

  <!-- Y-axis labels -->
  <text x="70" y="305" text-anchor="end" font-family="Arial, sans-serif" font-size="10" fill="#7f8c8d">8s</text>
  <text x="70" y="345" text-anchor="end" font-family="Arial, sans-serif" font-size="10" fill="#7f8c8d">6s</text>
  <text x="70" y="385" text-anchor="end" font-family="Arial, sans-serif" font-size="10" fill="#7f8c8d">4s</text>
  <text x="70" y="425" text-anchor="end" font-family="Arial, sans-serif" font-size="10" fill="#7f8c8d">2s</text>
  <text x="70" y="465" text-anchor="end" font-family="Arial, sans-serif" font-size="10" fill="#7f8c8d">0s</text>

  <!-- Response time lines -->
  <path d="M 80 445 L 140 440 L 200 435 L 260 438 L 320 442 L 380 440 L 440 437 L 500 435 L 520 433"
        stroke="#3498db" stroke-width="3" fill="none"/>
  <text x="525" y="438" font-family="Arial, sans-serif" font-size="10" fill="#3498db">P50: 2.1s</text>

  <path d="M 80 400 L 140 395 L 200 390 L 260 392 L 320 388 L 380 385 L 440 383 L 500 380 L 520 378"
        stroke="#f39c12" stroke-width="3" fill="none"/>
  <text x="525" y="383" font-family="Arial, sans-serif" font-size="10" fill="#f39c12">P95: 4.5s</text>

  <path d="M 80 340 L 140 338 L 200 335 L 260 330 L 320 328 L 380 325 L 440 323 L 500 320 L 520 318"
        stroke="#e74c3c" stroke-width="3" fill="none"/>
  <text x="525" y="323" font-family="Arial, sans-serif" font-size="10" fill="#e74c3c">P99: 6.8s</text>

  <!-- Request Rate by Endpoint -->
  <rect x="580" y="240" width="470" height="240" rx="8" fill="#f8f9fa" stroke="#bdc3c7" stroke-width="2"/>
  <text x="815" y="270" text-anchor="middle" font-family="Arial, sans-serif" font-size="15" font-weight="bold" fill="#2c3e50">
    엔드포인트별 요청 분포
  </text>

  <!-- Bar chart -->
  <rect x="610" y="300" width="380" height="30" rx="3" fill="#ecf0f1"/>
  <rect x="610" y="300" width="270" height="30" rx="3" fill="#3498db"/>
  <text x="620" y="320" font-family="Arial, sans-serif" font-size="11" fill="white">/api/analyze/upbit/*</text>
  <text x="900" y="320" font-family="Arial, sans-serif" font-size="11" fill="#2c3e50">45%</text>

  <rect x="610" y="345" width="380" height="30" rx="3" fill="#ecf0f1"/>
  <rect x="610" y="345" width="190" height="30" rx="3" fill="#27ae60"/>
  <text x="620" y="365" font-family="Arial, sans-serif" font-size="11" fill="white">/api/analyze/yahoo/*</text>
  <text x="900" y="365" font-family="Arial, sans-serif" font-size="11" fill="#2c3e50">25%</text>

  <rect x="610" y="390" width="380" height="30" rx="3" fill="#ecf0f1"/>
  <rect x="610" y="390" width="152" height="30" rx="3" fill="#9b59b6"/>
  <text x="620" y="410" font-family="Arial, sans-serif" font-size="11" fill="white">/analysis-results/</text>
  <text x="900" y="410" font-family="Arial, sans-serif" font-size="11" fill="#2c3e50">20%</text>

  <rect x="610" y="435" width="380" height="30" rx="3" fill="#ecf0f1"/>
  <rect x="610" y="435" width="76" height="30" rx="3" fill="#e67e22"/>
  <text x="620" y="455" font-family="Arial, sans-serif" font-size="11" fill="white">/health</text>
  <text x="900" y="455" font-family="Arial, sans-serif" font-size="11" fill="#2c3e50">10%</text>

  <!-- Analysis Performance -->
  <rect x="50" y="510" width="500" height="240" rx="8" fill="#f8f9fa" stroke="#bdc3c7" stroke-width="2"/>
  <text x="300" y="540" text-anchor="middle" font-family="Arial, sans-serif" font-size="15" font-weight="bold" fill="#2c3e50">
    분석 실행 횟수 (자산 타입별)
  </text>

  <!-- Pie chart simulation -->
  <circle cx="200" cy="630" r="80" fill="#3498db"/>
  <path d="M 200 630 L 200 550 A 80 80 0 0 1 254.64 590.72 Z" fill="#27ae60"/>
  <path d="M 200 630 L 254.64 590.72 A 80 80 0 0 1 229.28 708.28 Z" fill="#e74c3c"/>

  <!-- Legend -->
  <rect x="320" y="590" width="15" height="15" fill="#3498db"/>
  <text x="340" y="602" font-family="Arial, sans-serif" font-size="12" fill="#2c3e50">암호화폐 (60%)</text>

  <rect x="320" y="620" width="15" height="15" fill="#27ae60"/>
  <text x="340" y="632" font-family="Arial, sans-serif" font-size="12" fill="#2c3e50">미국 주식 (30%)</text>

  <rect x="320" y="650" width="15" height="15" fill="#e74c3c"/>
  <text x="340" y="662" font-family="Arial, sans-serif" font-size="12" fill="#2c3e50">국내 주식 (10%)</text>

  <!-- API Success Rate -->
  <rect x="580" y="510" width="470" height="240" rx="8" fill="#f8f9fa" stroke="#bdc3c7" stroke-width="2"/>
  <text x="815" y="540" text-anchor="middle" font-family="Arial, sans-serif" font-size="15" font-weight="bold" fill="#2c3e50">
    API 호출 성공률
  </text>

  <!-- Success rate bars -->
  <text x="610" y="585" font-family="Arial, sans-serif" font-size="12" fill="#2c3e50">Upbit API</text>
  <rect x="720" y="570" width="300" height="20" rx="3" fill="#ecf0f1"/>
  <rect x="720" y="570" width="298" height="20" rx="3" fill="#27ae60"/>
  <text x="1030" y="585" font-family="Arial, sans-serif" font-size="12" font-weight="bold" fill="#27ae60">99.5%</text>

  <text x="610" y="625" font-family="Arial, sans-serif" font-size="12" fill="#2c3e50">Yahoo Finance</text>
  <rect x="720" y="610" width="300" height="20" rx="3" fill="#ecf0f1"/>
  <rect x="720" y="610" width="296" height="20" rx="3" fill="#27ae60"/>
  <text x="1030" y="625" font-family="Arial, sans-serif" font-size="12" font-weight="bold" fill="#27ae60">98.8%</text>

  <text x="610" y="665" font-family="Arial, sans-serif" font-size="12" fill="#2c3e50">KIS API</text>
  <rect x="720" y="650" width="300" height="20" rx="3" fill="#ecf0f1"/>
  <rect x="720" y="650" width="291" height="20" rx="3" fill="#f39c12"/>
  <text x="1030" y="665" font-family="Arial, sans-serif" font-size="12" font-weight="bold" fill="#f39c12">97.2%</text>

  <text x="610" y="705" font-family="Arial, sans-serif" font-size="12" fill="#2c3e50">Gemini AI</text>
  <rect x="720" y="690" width="300" height="20" rx="3" fill="#ecf0f1"/>
  <rect x="720" y="690" width="300" height="20" rx="3" fill="#27ae60"/>
  <text x="1030" y="705" font-family="Arial, sans-serif" font-size="12" font-weight="bold" fill="#27ae60">100%</text>

  <!-- Bottom status -->
  <rect x="0" y="760" width="1100" height="40" fill="#27ae60"/>
  <text x="30" y="785" font-family="Arial, sans-serif" font-size="13" fill="white">
    ● 시스템 정상 운영 중
  </text>
  <text x="1070" y="785" text-anchor="end" font-family="Arial, sans-serif" font-size="11" fill="white">
    마지막 업데이트: 방금 전
  </text>
</svg>
