<svg xmlns="http://www.w3.org/2000/svg" viewBox="0 0 1200 800"><defs><linearGradient id="bgGradient" x1="0%" x2="100%" y1="0%" y2="100%"><stop offset="0%" style="stop-color:#1a1a2e;stop-opacity:1"/><stop offset="100%" style="stop-color:#16213e;stop-opacity:1"/></linearGradient><linearGradient id="timelineGradient" x1="0%" x2="100%" y1="0%" y2="0%"><stop offset="0%" style="stop-color:#00d4ff;stop-opacity:1"/><stop offset="100%" style="stop-color:#0f8;stop-opacity:1"/></linearGradient></defs><rect width="1200" height="800" fill="url(#bgGradient)"/><text x="600" y="70" fill="#fff" font-family="Arial, sans-serif" font-size="48" font-weight="bold" text-anchor="middle">Python 버전 타임라인</text><text x="600" y="110" fill="#00d4ff" font-family="Arial, sans-serif" font-size="24" text-anchor="middle">릴리즈 및 EOL (End of Life)</text><line x1="150" x2="1050" y1="400" y2="400" stroke="url(#timelineGradient)" stroke-linecap="round" stroke-width="4"/><g transform="translate(200, 400)"><circle cx="0" cy="0" r="12" fill="#FFD43B"/><circle cx="0" cy="0" r="8" fill="#1a1a2e"/><rect width="140" height="90" x="-70" y="-120" fill="#FFD43B" opacity=".2" rx="10"/><rect width="130" height="80" x="-65" y="-115" fill="#FFD43B" rx="8"/><text x="0" y="-85" fill="#1a1a2e" font-family="Arial, sans-serif" font-size="24" font-weight="bold" text-anchor="middle">Python 3.11</text><text x="0" y="-55" fill="#1a1a2e" font-family="Arial, sans-serif" font-size="16" text-anchor="middle">2022년 10월</text><text x="0" y="50" fill="#ff6b6b" font-family="Arial, sans-serif" font-size="18" font-weight="bold" text-anchor="middle">EOL: 2027년 10월</text><text x="0" y="75" fill="#ff6b6b" font-family="Arial, sans-serif" font-size="14" text-anchor="middle">(2년 3개월 남음)</text></g><g transform="translate(500, 400)"><circle cx="0" cy="0" r="12" fill="#4B8BBE"/><circle cx="0" cy="0" r="8" fill="#1a1a2e"/><rect width="140" height="90" x="-70" y="-120" fill="#4B8BBE" opacity=".2" rx="10"/><rect width="130" height="80" x="-65" y="-115" fill="#4B8BBE" rx="8"/><text x="0" y="-85" fill="#fff" font-family="Arial, sans-serif" font-size="24" font-weight="bold" text-anchor="middle">Python 3.12</text><text x="0" y="-55" fill="#fff" font-family="Arial, sans-serif" font-size="16" text-anchor="middle">2023년 10월</text><text x="0" y="50" fill="orange" font-family="Arial, sans-serif" font-size="18" font-weight="bold" text-anchor="middle">EOL: 2028년 10월</text><text x="0" y="75" fill="orange" font-family="Arial, sans-serif" font-size="14" text-anchor="middle">(3년 10개월 남음)</text></g><g transform="translate(800, 400)"><circle cx="0" cy="0" r="16" fill="#0f8"/><circle cx="0" cy="0" r="12" fill="#1a1a2e"/><circle cx="0" cy="0" r="8" fill="#0f8"/><circle cx="0" cy="0" r="20" fill="#0f8" opacity=".3"><animate attributeName="r" dur="2s" repeatCount="indefinite" values="20;30;20"/><animate attributeName="opacity" dur="2s" repeatCount="indefinite" values="0.3;0;0.3"/></circle><rect width="140" height="90" x="-70" y="-120" fill="#0f8" opacity=".2" rx="10"/><rect width="130" height="80" x="-65" y="-115" fill="#0f8" rx="8"/><text x="0" y="-85" fill="#1a1a2e" font-family="Arial, sans-serif" font-size="24" font-weight="bold" text-anchor="middle">Python 3.13</text><text x="0" y="-55" fill="#1a1a2e" font-family="Arial, sans-serif" font-size="16" text-anchor="middle">2024년 10월</text><rect width="70" height="25" x="-35" y="-150" fill="#ff6b6b" rx="12"/><text x="0" y="-131" fill="#fff" font-family="Arial, sans-serif" font-size="14" font-weight="bold" text-anchor="middle">LATEST</text><text x="0" y="50" fill="#0f8" font-family="Arial, sans-serif" font-size="18" font-weight="bold" text-anchor="middle">EOL: 2029년 10월</text><text x="0" y="75" fill="#0f8" font-family="Arial, sans-serif" font-size="14" text-anchor="middle">(4년 10개월 남음)</text></g><g transform="translate(1000, 400)"><circle cx="0" cy="0" r="12" fill="#888" opacity=".5"/><circle cx="0" cy="0" r="8" fill="#1a1a2e" opacity=".5"/><rect width="140" height="90" x="-70" y="-120" fill="#888" opacity=".1" rx="10"/><rect width="130" height="80" x="-65" y="-115" fill="#888" opacity=".3" rx="8"/><text x="0" y="-85" fill="#888" font-family="Arial, sans-serif" font-size="24" font-weight="bold" text-anchor="middle">Python 3.14</text><text x="0" y="-55" fill="#888" font-family="Arial, sans-serif" font-size="16" text-anchor="middle">2025년 10월 (예정)</text><rect width="100" height="25" x="-50" y="-150" fill="#888" opacity=".5" rx="12"/><text x="0" y="-131" fill="#fff" font-family="Arial, sans-serif" font-size="14" font-weight="bold" text-anchor="middle">COMING SOON</text></g><g transform="translate(200, 630)"><text x="0" y="0" fill="#fff" font-family="Arial, sans-serif" font-size="28" font-weight="bold">범례:</text><circle cx="30" cy="45" r="8" fill="#0f8"/><text x="50" y="52" fill="#0f8" font-family="Arial, sans-serif" font-size="20">최신 안정 버전</text><circle cx="280" cy="45" r="8" fill="#4B8BBE"/><text x="300" y="52" fill="#4B8BBE" font-family="Arial, sans-serif" font-size="20">유지보수 단계</text><circle cx="520" cy="45" r="8" fill="#FFD43B"/><text x="540" y="52" fill="#FFD43B" font-family="Arial, sans-serif" font-size="20">EOL 임박 (3년 이내)</text><circle cx="790" cy="45" r="8" fill="#888"/><text x="810" y="52" fill="#888" font-family="Arial, sans-serif" font-size="20">계획 단계</text></g><rect width="900" height="80" x="150" y="690" fill="#00d4ff" opacity=".1" rx="10"/><text x="600" y="720" fill="#00d4ff" font-family="Arial, sans-serif" font-size="20" text-anchor="middle">💡 권장: Python 3.12 또는 3.13 사용 (5년 이상 지원 보장)</text><text x="600" y="750" fill="#00d4ff" font-family="Arial, sans-serif" font-size="18" text-anchor="middle">Python 3.11 이하는 EOL이 임박했으므로 업그레이드를 고려하세요.</text></svg>