<svg xmlns="http://www.w3.org/2000/svg" viewBox="0 0 1200 800"><defs><linearGradient id="bgGradient" x1="0%" x2="100%" y1="0%" y2="100%"><stop offset="0%" style="stop-color:#1a1a2e;stop-opacity:1"/><stop offset="100%" style="stop-color:#16213e;stop-opacity:1"/></linearGradient><linearGradient id="py312Gradient" x1="0%" x2="0%" y1="100%" y2="0%"><stop offset="0%" style="stop-color:#ffd43b;stop-opacity:.3"/><stop offset="100%" style="stop-color:#ffd43b;stop-opacity:.8"/></linearGradient><linearGradient id="py313Gradient" x1="0%" x2="0%" y1="100%" y2="0%"><stop offset="0%" style="stop-color:#0f8;stop-opacity:.3"/><stop offset="100%" style="stop-color:#0f8;stop-opacity:.8"/></linearGradient></defs><rect width="1200" height="800" fill="url(#bgGradient)"/><text x="600" y="70" fill="#fff" font-family="Arial, sans-serif" font-size="48" font-weight="bold" text-anchor="middle">Python 3.12 vs 3.13 성능 비교</text><text x="600" y="110" fill="#00d4ff" font-family="Arial, sans-serif" font-size="24" text-anchor="middle">실제 프로젝트 벤치마크 결과</text><g transform="translate(150, 200)"><line x1="0" x2="0" y1="0" y2="500" stroke="#fff" stroke-width="2"/><text x="-20" y="5" fill="#fff" font-family="Arial, sans-serif" font-size="18" text-anchor="end">100</text><text x="-20" y="130" fill="#fff" font-family="Arial, sans-serif" font-size="18" text-anchor="end">75</text><text x="-20" y="255" fill="#fff" font-family="Arial, sans-serif" font-size="18" text-anchor="end">50</text><text x="-20" y="380" fill="#fff" font-family="Arial, sans-serif" font-size="18" text-anchor="end">25</text><text x="-20" y="505" fill="#fff" font-family="Arial, sans-serif" font-size="18" text-anchor="end">0</text><text x="-70" y="250" fill="#fff" font-family="Arial, sans-serif" font-size="20" font-weight="bold" text-anchor="middle" transform="rotate(-90, -70, 250)">시간 (초 / MB)</text><line x1="0" x2="900" y1="500" y2="500" stroke="#fff" stroke-width="2"/><g opacity=".2"><line x1="0" x2="900" y1="125" y2="125" stroke="#fff" stroke-width="1"/><line x1="0" x2="900" y1="250" y2="250" stroke="#fff" stroke-width="1"/><line x1="0" x2="900" y1="375" y2="375" stroke="#fff" stroke-width="1"/></g><g transform="translate(100, 0)"><rect width="80" height="34" x="-50" y="466" fill="url(#py312Gradient)" rx="5"/><text x="-10" y="450" fill="#FFD43B" font-family="Arial, sans-serif" font-size="18" font-weight="bold" text-anchor="middle">2.34s</text><rect width="80" height="26" x="50" y="474" fill="url(#py313Gradient)" rx="5"/><text x="90" y="458" fill="#0f8" font-family="Arial, sans-serif" font-size="18" font-weight="bold" text-anchor="middle">2.30s</text><text x="40" y="535" fill="#fff" font-family="Arial, sans-serif" font-size="18" font-weight="bold" text-anchor="middle">앱 시작</text><text x="40" y="555" fill="#00d4ff" font-family="Arial, sans-serif" font-size="14" text-anchor="middle">-2%</text></g><g transform="translate(330, 0)"><rect width="80" height="92" x="-50" y="408" fill="url(#py312Gradient)" rx="5"/><text x="-10" y="392" fill="#FFD43B" font-family="Arial, sans-serif" font-size="18" font-weight="bold" text-anchor="middle">18.42s</text><rect width="80" height="79" x="50" y="421" fill="url(#py313Gradient)" rx="5"/><text x="90" y="405" fill="#0f8" font-family="Arial, sans-serif" font-size="18" font-weight="bold" text-anchor="middle">17.91s</text><text x="40" y="535" fill="#fff" font-family="Arial, sans-serif" font-size="18" font-weight="bold" text-anchor="middle">테스트 실행</text><text x="40" y="555" fill="#0f8" font-family="Arial, sans-serif" font-size="14" text-anchor="middle">-3%</text></g><g transform="translate(560, 0)"><rect width="80" height="405" x="-50" y="95" fill="url(#py312Gradient)" rx="5"/><text x="-10" y="79" fill="#FFD43B" font-family="Arial, sans-serif" font-size="18" font-weight="bold" text-anchor="middle">81.03ms</text><rect width="80" height="393" x="50" y="107" fill="url(#py313Gradient)" rx="5"/><text x="90" y="91" fill="#0f8" font-family="Arial, sans-serif" font-size="18" font-weight="bold" text-anchor="middle">78.67ms</text><text x="40" y="535" fill="#fff" font-family="Arial, sans-serif" font-size="18" font-weight="bold" text-anchor="middle">API 응답</text><text x="40" y="555" fill="#0f8" font-family="Arial, sans-serif" font-size="14" text-anchor="middle">-3%</text></g><g transform="translate(790, 0)"><rect width="80" height="429" x="-50" y="71" fill="url(#py312Gradient)" rx="5"/><text x="-10" y="55" fill="#FFD43B" font-family="Arial, sans-serif" font-size="18" font-weight="bold" text-anchor="middle">142MB</text><rect width="80" height="418" x="50" y="82" fill="url(#py313Gradient)" rx="5"/><text x="90" y="66" fill="#0f8" font-family="Arial, sans-serif" font-size="18" font-weight="bold" text-anchor="middle">139MB</text><text x="40" y="535" fill="#fff" font-family="Arial, sans-serif" font-size="18" font-weight="bold" text-anchor="middle">메모리 사용</text><text x="40" y="555" fill="#0f8" font-family="Arial, sans-serif" font-size="14" text-anchor="middle">-2.5%</text></g></g><g transform="translate(400, 720)"><rect width="30" height="30" x="0" y="0" fill="url(#py312Gradient)" rx="5"/><text x="40" y="22" fill="#FFD43B" font-family="Arial, sans-serif" font-size="20">Python 3.12</text><rect width="30" height="30" x="200" y="0" fill="url(#py313Gradient)" rx="5"/><text x="240" y="22" fill="#0f8" font-family="Arial, sans-serif" font-size="20">Python 3.13</text></g><rect width="900" height="60" x="150" y="170" fill="#0f8" opacity=".1" rx="10"/><text x="600" y="200" fill="#0f8" font-family="Arial, sans-serif" font-size="22" font-weight="bold" text-anchor="middle">⚡ Python 3.13이 평균 2.6% 빠르고, 메모리는 2.5% 절감</text></svg>