<?xml version="1.0" encoding="UTF-8"?>
<svg width="1200" height="630" xmlns="http://www.w3.org/2000/svg">
    <defs>
        <linearGradient id="bgGradient" x1="0%" y1="0%" x2="100%" y2="100%">
            <stop offset="0%" style="stop-color:#ffffff;stop-opacity:1" />
            <stop offset="50%" style="stop-color:#f1f5f9;stop-opacity:1" />
            <stop offset="100%" style="stop-color:#e2e8f0;stop-opacity:1" />
        </linearGradient>
    </defs>

    <!-- 배경 -->
    <rect width="1200" height="630" fill="url(#bgGradient)"/>
    <!-- Background pattern: wave -->
    <path d="M0,150 Q300,100 600,150 T1200,150" fill="none" stroke="#ffffff" stroke-width="2" opacity="0.06"/>
    <path d="M0,190 Q300,140 600,190 T1200,190" fill="none" stroke="#ffffff" stroke-width="2" opacity="0.06"/>
    <path d="M0,230 Q300,180 600,230 T1200,230" fill="none" stroke="#ffffff" stroke-width="2" opacity="0.06"/>
    <path d="M0,270 Q300,220 600,270 T1200,270" fill="none" stroke="#ffffff" stroke-width="2" opacity="0.06"/>
    <path d="M0,310 Q300,260 600,310 T1200,310" fill="none" stroke="#ffffff" stroke-width="2" opacity="0.06"/>

    <!-- 제목 -->
    <text x="600" y="140" font-family="'Noto Sans KR', 'Inter', 'Arial', sans-serif" font-size="52" font-weight="bold" fill="#ffffff" text-anchor="middle">
        Python 3.14
    </text>
    <text x="600" y="210" font-family="'Noto Sans KR', 'Inter', 'Arial', sans-serif" font-size="52" font-weight="bold" fill="#FFD43B" text-anchor="middle">
        Pi Release
    </text>
    <!-- 부제목 -->
    <text x="600" y="290" font-family="'Noto Sans KR', 'Inter', 'Arial', sans-serif" font-size="30" fill="#778da9" text-anchor="middle">
        t-strings, Free-threading, 그리고 성능 개선
    </text>

    <!-- 아이콘들 -->
    <g transform="translate(455, 380)">
        <rect x="0" y="0" width="100" height="100" rx="10" fill="#FF6B35" opacity="0.9"/>
        <g transform="translate(26, 26) scale(2.0)"><path d="M13 2 3 14h9l-1 8 10-12h-9l1-8z" fill="none" stroke="#ffffff" stroke-width="2" stroke-linecap="round" stroke-linejoin="round"/></g>
        <text x="50" y="85" font-family="'Noto Sans KR', 'Inter', 'Arial', sans-serif" font-size="14" fill="#ffffff" text-anchor="middle">Speed</text>
        <rect x="130" y="0" width="100" height="100" rx="10" fill="#306998" opacity="0.9"/>
        <g transform="translate(156, 26) scale(2.0)"><path d="m16 18 6-6-6-6" fill="none" stroke="#ffffff" stroke-width="2" stroke-linecap="round" stroke-linejoin="round"/>
<path d="M8 6l-6 6 6 6" fill="none" stroke="#ffffff" stroke-width="2" stroke-linecap="round" stroke-linejoin="round"/></g>
        <text x="180" y="85" font-family="'Noto Sans KR', 'Inter', 'Arial', sans-serif" font-size="14" fill="#ffffff" text-anchor="middle">Python</text>
        <rect x="260" y="0" width="100" height="100" rx="10" fill="#4CAF50" opacity="0.9"/>
        <g transform="translate(286, 26) scale(2.0)"><path d="M3 12a9 9 0 0 1 9-9 9.75 9.75 0 0 1 6.74 2.74L21 8" fill="none" stroke="#ffffff" stroke-width="2" stroke-linecap="round" stroke-linejoin="round"/>
<path d="M21 3v5h-5" fill="none" stroke="#ffffff" stroke-width="2" stroke-linecap="round" stroke-linejoin="round"/>
<path d="M21 12a9 9 0 0 1-9 9 9.75 9.75 0 0 1-6.74-2.74L3 16" fill="none" stroke="#ffffff" stroke-width="2" stroke-linecap="round" stroke-linejoin="round"/>
<path d="M8 21h5v-5" fill="none" stroke="#ffffff" stroke-width="2" stroke-linecap="round" stroke-linejoin="round"/></g>
        <text x="310" y="85" font-family="'Noto Sans KR', 'Inter', 'Arial', sans-serif" font-size="14" fill="#ffffff" text-anchor="middle">Upgrade</text>
    </g>
</svg>