<svg xmlns="http://www.w3.org/2000/svg" viewBox="0 0 1200 630"><defs><linearGradient id="bgGradient" x1="0%" x2="100%" y1="0%" y2="100%"><stop offset="0%" style="stop-color:#1a1a2e;stop-opacity:1"/><stop offset="100%" style="stop-color:#16213e;stop-opacity:1"/></linearGradient><linearGradient id="python312Gradient" x1="0%" x2="100%" y1="0%" y2="0%"><stop offset="0%" style="stop-color:#ffd43b;stop-opacity:1"/><stop offset="100%" style="stop-color:#ffe873;stop-opacity:1"/></linearGradient><linearGradient id="python313Gradient" x1="0%" x2="100%" y1="0%" y2="0%"><stop offset="0%" style="stop-color:#4b8bbe;stop-opacity:1"/><stop offset="100%" style="stop-color:#646b9e;stop-opacity:1"/></linearGradient><linearGradient id="arrowGradient" x1="0%" x2="100%" y1="0%" y2="0%"><stop offset="0%" style="stop-color:#00d4ff;stop-opacity:1"/><stop offset="100%" style="stop-color:#00a8ff;stop-opacity:1"/></linearGradient></defs><rect width="1200" height="630" fill="url(#bgGradient)"/><g opacity=".05"><line x1="0" x2="1200" y1="105" y2="105" stroke="#fff" stroke-width="1"/><line x1="0" x2="1200" y1="210" y2="210" stroke="#fff" stroke-width="1"/><line x1="0" x2="1200" y1="315" y2="315" stroke="#fff" stroke-width="1"/><line x1="0" x2="1200" y1="420" y2="420" stroke="#fff" stroke-width="1"/><line x1="0" x2="1200" y1="525" y2="525" stroke="#fff" stroke-width="1"/><line x1="200" x2="200" y1="0" y2="630" stroke="#fff" stroke-width="1"/><line x1="400" x2="400" y1="0" y2="630" stroke="#fff" stroke-width="1"/><line x1="600" x2="600" y1="0" y2="630" stroke="#fff" stroke-width="1"/><line x1="800" x2="800" y1="0" y2="630" stroke="#fff" stroke-width="1"/><line x1="1000" x2="1000" y1="0" y2="630" stroke="#fff" stroke-width="1"/></g><g transform="translate(200, 250)"><circle cx="0" cy="0" r="80" fill="url(#python312Gradient)" opacity=".2"/><path fill="url(#python312Gradient)" d="M -30,-40 Q -30,-60 -10,-60 L 10,-60 Q 30,-60 30,-40 L 30,0 Q 30,20 10,20 L -10,20 Q -30,20 -30,0 Z"/><circle cx="-10" cy="-40" r="5" fill="#1a1a2e"/><text x="0" y="65" fill="url(#python312Gradient)" font-family="Arial, sans-serif" font-size="48" font-weight="bold" text-anchor="middle">3.12</text></g><g transform="translate(600, 315)"><line x1="-150" x2="100" y1="0" y2="0" stroke="url(#arrowGradient)" stroke-linecap="round" stroke-width="8"/><polygon fill="url(#arrowGradient)" points="100 0 70 -20 70 20"/><rect width="100" height="70" x="-50" y="-35" fill="#00d4ff" opacity=".2" rx="35"/><rect width="90" height="60" x="-45" y="-30" fill="#00d4ff" rx="30"/><text x="0" y="-5" fill="#1a1a2e" font-family="Arial, sans-serif" font-size="18" font-weight="bold" text-anchor="middle">UPGRADE</text><text x="0" y="15" fill="#1a1a2e" font-family="Arial, sans-serif" font-size="14" font-weight="bold" text-anchor="middle">+3% Faster</text></g><g transform="translate(1000, 250)"><circle cx="0" cy="0" r="80" fill="url(#python313Gradient)" opacity=".2"/><path fill="url(#python313Gradient)" d="M -30,-40 Q -30,-60 -10,-60 L 10,-60 Q 30,-60 30,-40 L 30,0 Q 30,20 10,20 L -10,20 Q -30,20 -30,0 Z"/><circle cx="-10" cy="-40" r="5" fill="#fff"/><text x="0" y="65" fill="url(#python313Gradient)" font-family="Arial, sans-serif" font-size="48" font-weight="bold" text-anchor="middle">3.13</text><circle cx="50" cy="-30" r="25" fill="#0f8"/><text x="50" y="-23" fill="#1a1a2e" font-family="Arial, sans-serif" font-size="14" font-weight="bold" text-anchor="middle">NEW</text></g><text x="600" y="80" fill="#fff" font-family="Arial, sans-serif" font-size="56" font-weight="bold" text-anchor="middle">Python 3.13 업그레이드</text><text x="600" y="135" fill="#00d4ff" font-family="Arial, sans-serif" font-size="32" text-anchor="middle">새로운 기능과 성능 개선 도입하기</text><g transform="translate(600, 530)"><rect width="130" height="40" x="-280" y="0" fill="#0f8" opacity=".3" rx="20"/><text x="-215" y="27" fill="#0f8" font-family="Arial, sans-serif" font-size="18" font-weight="bold" text-anchor="middle">JIT Compiler</text><rect width="120" height="40" x="-130" y="0" fill="#00d4ff" opacity=".3" rx="20"/><text x="-70" y="27" fill="#00d4ff" font-family="Arial, sans-serif" font-size="18" font-weight="bold" text-anchor="middle">GIL 개선</text><rect width="140" height="40" x="10" y="0" fill="#FFD43B" opacity=".3" rx="20"/><text x="80" y="27" fill="#FFD43B" font-family="Arial, sans-serif" font-size="18" font-weight="bold" text-anchor="middle">타입 힌팅 강화</text><rect width="110" height="40" x="170" y="0" fill="#ff6b6b" opacity=".3" rx="20"/><text x="225" y="27" fill="#ff6b6b" font-family="Arial, sans-serif" font-size="18" font-weight="bold" text-anchor="middle">보안 개선</text></g></svg>