<svg xmlns="http://www.w3.org/2000/svg" viewBox="0 0 900 650"><rect width="900" height="650" fill="#fff"/><text x="450" y="35" fill="#2c3e50" font-family="Arial, sans-serif" font-size="22" font-weight="bold" text-anchor="middle">삼성전자 주가 차트와 Gemini AI 분석 결과 (2025.10.21)</text><rect width="800" height="350" x="50" y="70" fill="#f8f9fa" stroke="#bdc3c7" stroke-width="2" rx="5"/><g stroke="#ecf0f1" stroke-width="1"><line x1="50" x2="850" y1="120" y2="120"/><line x1="50" x2="850" y1="170" y2="170"/><line x1="50" x2="850" y1="220" y2="220"/><line x1="50" x2="850" y1="270" y2="270"/><line x1="50" x2="850" y1="320" y2="320"/><line x1="50" x2="850" y1="370" y2="370"/></g><text x="40" y="75" fill="#7f8c8d" font-family="Arial, sans-serif" font-size="12" text-anchor="end">100,000</text><text x="40" y="125" fill="#7f8c8d" font-family="Arial, sans-serif" font-size="12" text-anchor="end">95,000</text><text x="40" y="175" fill="#7f8c8d" font-family="Arial, sans-serif" font-size="12" text-anchor="end">90,000</text><text x="40" y="225" fill="#7f8c8d" font-family="Arial, sans-serif" font-size="12" text-anchor="end">85,000</text><text x="40" y="275" fill="#7f8c8d" font-family="Arial, sans-serif" font-size="12" text-anchor="end">80,000</text><text x="40" y="325" fill="#7f8c8d" font-family="Arial, sans-serif" font-size="12" text-anchor="end">75,000</text><text x="40" y="375" fill="#7f8c8d" font-family="Arial, sans-serif" font-size="12" text-anchor="end">70,000</text><path fill="none" stroke="#3498db" stroke-width="3" d="M 80 370 L 120 350 L 160 330 L 200 310 L 240 300 L 280 280 L 320 260 L 360 240 L 400 230 L 440 225 L 480 220 L 520 200 L 560 180 L 600 170 L 640 150 L 680 130 L 720 115 L 760 110 L 800 105 L 840 102"/><path fill="none" stroke="#e74c3c" stroke-dasharray="5 5" stroke-width="2" d="M 80 365 L 160 325 L 240 295 L 320 255 L 400 225 L 480 210 L 560 175 L 640 145 L 720 120 L 800 108"/><path fill="none" stroke="#27ae60" stroke-dasharray="5 5" stroke-width="2" d="M 80 340 L 160 300 L 240 270 L 320 240 L 400 210 L 480 190 L 560 165 L 640 140 L 720 125 L 800 115"/><circle cx="840" cy="102" r="6" fill="#e74c3c" stroke="#fff" stroke-width="2"/><text x="860" y="107" fill="#e74c3c" font-family="Arial, sans-serif" font-size="14" font-weight="bold">97,500원</text><text x="80" y="435" fill="#7f8c8d" font-family="Arial, sans-serif" font-size="11" text-anchor="middle">9/30</text><text x="200" y="435" fill="#7f8c8d" font-family="Arial, sans-serif" font-size="11" text-anchor="middle">10/02</text><text x="400" y="435" fill="#7f8c8d" font-family="Arial, sans-serif" font-size="11" text-anchor="middle">10/10</text><text x="600" y="435" fill="#7f8c8d" font-family="Arial, sans-serif" font-size="11" text-anchor="middle">10/15</text><text x="800" y="435" fill="#7f8c8d" font-family="Arial, sans-serif" font-size="11" text-anchor="middle">10/21</text><rect width="150" height="70" x="680" y="450" fill="#fff" stroke="#bdc3c7" stroke-width="1" rx="5"/><line x1="690" x2="720" y1="465" y2="465" stroke="#3498db" stroke-width="3"/><text x="730" y="470" fill="#2c3e50" font-family="Arial, sans-serif" font-size="11">종가</text><line x1="690" x2="720" y1="485" y2="485" stroke="#e74c3c" stroke-dasharray="5 5" stroke-width="2"/><text x="730" y="490" fill="#2c3e50" font-family="Arial, sans-serif" font-size="11">MA 20</text><line x1="690" x2="720" y1="505" y2="505" stroke="#27ae60" stroke-dasharray="5 5" stroke-width="2"/><text x="730" y="510" fill="#2c3e50" font-family="Arial, sans-serif" font-size="11">MA 60</text><rect width="600" height="160" x="50" y="460" fill="#f0f8ff" stroke="#3498db" stroke-width="2" rx="8"/><circle cx="85" cy="495" r="20" fill="#9b59b6"/><text x="85" y="502" fill="#fff" font-family="Arial, sans-serif" font-size="16" font-weight="bold" text-anchor="middle">AI</text><text x="120" y="480" fill="#2c3e50" font-family="Arial, sans-serif" font-size="16" font-weight="bold">Gemini AI 분석 결과</text><rect width="80" height="28" x="120" y="490" fill="#f39c12" stroke="#e67e22" stroke-width="2" rx="14"/><text x="160" y="509" fill="#fff" font-family="Arial, sans-serif" font-size="14" font-weight="bold" text-anchor="middle">관망</text><text x="220" y="509" fill="#34495e" font-family="Arial, sans-serif" font-size="12">신뢰도: <tspan fill="#e74c3c" font-weight="bold">85%</tspan></text><text x="70" y="535" fill="#2c3e50" font-family="Arial, sans-serif" font-size="11"><tspan font-weight="bold">근거:</tspan></text><text x="70" y="552" fill="#34495e" font-family="Arial, sans-serif" font-size="11">1. 강력한 상승 추세 (이동평균선 정배열, 10일간 +16% 상승)</text><text x="70" y="567" fill="#34495e" font-family="Arial, sans-serif" font-size="11">2. 과매수 구간 진입 (RSI 76.8, Stoch %K 86.3)</text><text x="70" y="582" fill="#34495e" font-family="Arial, sans-serif" font-size="11">3. 단기 조정 가능성 높음 - 더 나은 매수 시점 대기 권장</text><rect width="560" height="15" x="70" y="595" fill="#e8f5e9" rx="3"/><text x="75" y="606" fill="#27ae60" font-family="Arial, sans-serif" font-size="11"><tspan font-weight="bold">매수 희망가:</tspan> 95,000원 (조정 시 지지선)</text><rect width="290" height="15" x="340" y="595" fill="#ffebee" rx="3"/><text x="345" y="606" fill="#e74c3c" font-family="Arial, sans-serif" font-size="11"><tspan font-weight="bold">매도 목표가:</tspan> 100,000원 (심리적 저항선)</text><rect width="200" height="30" x="70" y="450" fill="#ecf0f1" stroke="#95a5a6" stroke-width="1" rx="5"/><text x="80" y="470" fill="#2c3e50" font-family="Arial, sans-serif" font-size="11">RSI: <tspan fill="#e74c3c" font-weight="bold">76.8</tspan> | MACD: <tspan fill="#27ae60" font-weight="bold">+663.76</tspan></text><rect width="140" height="30" x="280" y="450" fill="#fff3cd" stroke="#ffc107" stroke-width="2" rx="5"/><text x="350" y="470" fill="#856404" font-family="Arial, sans-serif" font-size="11" font-weight="bold" text-anchor="middle">⚠️ 과매수 경고</text></svg>