<svg xmlns="http://www.w3.org/2000/svg" viewBox="0 0 1200 630">
  <defs>
    <linearGradient id="bgGradient" x1="0%" y1="0%" x2="100%" y2="100%">
      <stop offset="0%" stop-color="#0f172a" />
      <stop offset="45%" stop-color="#1d4ed8" />
      <stop offset="100%" stop-color="#9333ea" />
    </linearGradient>
    <linearGradient id="panelGradient" x1="0%" y1="0%" x2="100%" y2="0%">
      <stop offset="0%" stop-color="#172554" />
      <stop offset="100%" stop-color="#1f2937" />
    </linearGradient>
    <linearGradient id="screenGradient" x1="0%" y1="0%" x2="100%" y2="100%">
      <stop offset="0%" stop-color="#1f2937" />
      <stop offset="100%" stop-color="#0f172a" />
    </linearGradient>
    <clipPath id="monitorClip_v2">
      <rect x="0" y="0" width="500" height="260" rx="18" />
    </clipPath>
  </defs>

  <rect width="1200" height="630" fill="url(#bgGradient)" />

  <rect x="80" y="90" width="1040" height="450" rx="36" fill="url(#panelGradient)" opacity="0.9" />
  <rect x="120" y="130" width="960" height="380" rx="28" fill="#0b1220" opacity="0.65" />

  <text x="150" y="190" font-family="Apple SD Gothic Neo, Noto Sans KR, Arial, sans-serif" font-size="26" fill="#a5b4fc" font-weight="600">AI 기반 자동매매 시리즈 · 5편</text>
  <text x="150" y="250" font-family="Apple SD Gothic Neo, Noto Sans KR, Arial, sans-serif" font-size="56" fill="#f8fafc" font-weight="700">Upbit 웹 트레이딩 대시보드</text>
  <text x="150" y="300" font-family="Apple SD Gothic Neo, Noto Sans KR, Arial, sans-serif" font-size="30" fill="#cbd5f5" font-weight="400">CLI에서 브라우저까지, 원클릭 자동매매로 전환하기</text>

  <g transform="translate(150, 340)">
    <g transform="translate(0, 0)">
      <circle cx="22" cy="18" r="8" fill="#22d3ee" />
      <text x="46" y="24" font-family="Apple SD Gothic Neo, Noto Sans KR, Arial, sans-serif" font-size="28" fill="#e0f2fe" font-weight="600">실시간 프로그레스 & 상태 복원</text>
    </g>
    <g transform="translate(0, 60)">
      <circle cx="22" cy="18" r="8" fill="#f87171" />
      <text x="46" y="24" font-family="Apple SD Gothic Neo, Noto Sans KR, Arial, sans-serif" font-size="28" fill="#fee2e2" font-weight="600">Celery 워커로 분석→매매 자동 실행</text>
    </g>
    <g transform="translate(0, 120)">
      <circle cx="22" cy="18" r="8" fill="#34d399" />
      <text x="46" y="24" font-family="Apple SD Gothic Neo, Noto Sans KR, Arial, sans-serif" font-size="28" fill="#dcfce7" font-weight="600">Bootstrap 기반 반응형 대시보드</text>
    </g>
  </g>

  <g transform="translate(350, 220)">
    <rect width="500" height="260" rx="18" fill="url(#screenGradient)" opacity="0.95" />
    <rect x="70" y="40" width="360" height="60" rx="12" fill="#1e293b" />
    <text x="250" y="80" font-family="Apple SD Gothic Neo, Noto Sans KR, Arial, sans-serif" font-size="30" fill="#c7d2fe" font-weight="600" text-anchor="middle">분석 · 매수 · 매도</text>

    <g clip-path="url(#monitorClip_v2)">
      <g transform="translate(110, 120)">
        <rect width="110" height="110" rx="18" fill="#38bdf8" opacity="0.85" />
        <text x="55" y="70" font-family="Apple SD Gothic Neo, Noto Sans KR, Arial, sans-serif" font-size="28" fill="#0f172a" font-weight="700" text-anchor="middle">Analyze</text>
      </g>
      <g transform="translate(230, 120)">
        <rect width="110" height="110" rx="18" fill="#facc15" opacity="0.85" />
        <text x="55" y="70" font-family="Apple SD Gothic Neo, Noto Sans KR, Arial, sans-serif" font-size="28" fill="#0f172a" font-weight="700" text-anchor="middle">Buy</text>
      </g>
      <g transform="translate(350, 120)">
        <rect width="110" height="110" rx="18" fill="#f97316" opacity="0.85" />
        <text x="55" y="70" font-family="Apple SD Gothic Neo, Noto Sans KR, Arial, sans-serif" font-size="28" fill="#0f172a" font-weight="700" text-anchor="middle">Sell</text>
      </g>
    </g>

    <path d="M120 205 L220 205" stroke="#38bdf8" stroke-width="6" stroke-linecap="round" opacity="0.65" />
    <path d="M240 205 L340 205" stroke="#facc15" stroke-width="6" stroke-linecap="round" opacity="0.65" />
    <path d="M360 205 L460 205" stroke="#f97316" stroke-width="6" stroke-linecap="round" opacity="0.65" />
  </g>

  <polygon points="575,500 625,500 610,520 590,520" fill="#0f172a" opacity="0.6" />

  <rect x="350" y="540" width="500" height="56" rx="28" fill="#0ea5e9" opacity="0.92" />
  <text x="600" y="578" font-family="Apple SD Gothic Neo, Noto Sans KR, Arial, sans-serif" font-size="26" fill="#0f172a" font-weight="700" text-anchor="middle">FastAPI · Celery · Redis · Upbit · Bootstrap 5</text>
</svg>
