<svg xmlns="http://www.w3.org/2000/svg" viewBox="0 0 2560 1600"><rect width="2560" height="1600" fill="#f8f9fa"/><text x="1280" y="100" fill="#212529" font-family="Apple SD Gothic Neo, Arial, sans-serif" font-size="64" font-weight="bold" text-anchor="middle">코인별 개별 작업 UI</text><g transform="translate(300, 250)"><rect width="1960" height="1200" fill="#fff" stroke="#dee2e6" stroke-width="4" rx="20"/><g><text x="0" y="60" fill="#212529" font-family="Apple SD Gothic Neo, Arial, sans-serif" font-size="52" font-weight="bold" transform="translate(40, 40)">비트코인</text><text x="0" y="120" fill="#6c757d" font-family="Courier New, monospace" font-size="36" transform="translate(40, 40)">BTC (KRW-BTC)</text></g><g><text x="0" y="60" fill="#198754" font-family="Apple SD Gothic Neo, Arial, sans-serif" font-size="56" font-weight="bold" text-anchor="end" transform="translate(1500, 40)">+12.34%</text><text x="0" y="120" fill="#198754" font-family="Apple SD Gothic Neo, Arial, sans-serif" font-size="36" text-anchor="end" transform="translate(1500, 40)">+2,456,000원</text></g><line x1="40" x2="1920" y1="180" y2="180" stroke="#dee2e6" stroke-width="2"/><g><text x="0" y="40" fill="#495057" font-family="Apple SD Gothic Neo, Arial, sans-serif" font-size="32" transform="translate(40, 230)">매도 가능 수량: 0.12345678</text><text x="980" y="40" fill="#495057" font-family="Apple SD Gothic Neo, Arial, sans-serif" font-size="32" text-anchor="end" transform="translate(40, 230)">주문 중: 0.00123456</text><text x="0" y="100" fill="#495057" font-family="Apple SD Gothic Neo, Arial, sans-serif" font-size="32" transform="translate(40, 230)">총 수량: 0.12469134</text><text x="980" y="100" fill="#495057" font-family="Apple SD Gothic Neo, Arial, sans-serif" font-size="32" text-anchor="end" transform="translate(40, 230)">현재가: 52,350,000원</text><text x="0" y="160" fill="#495057" font-family="Apple SD Gothic Neo, Arial, sans-serif" font-size="32" transform="translate(40, 230)">평균 단가: 48,200,000원</text><text x="980" y="160" fill="#495057" font-family="Apple SD Gothic Neo, Arial, sans-serif" font-size="32" text-anchor="end" transform="translate(40, 230)">평가금액: 6,528,000원</text></g><line x1="40" x2="1920" y1="450" y2="450" stroke="#dee2e6" stroke-width="2"/><g><text x="0" y="40" fill="#6c757d" font-family="Apple SD Gothic Neo, Arial, sans-serif" font-size="32" transform="translate(40, 500)">마지막 분석: 2025.11.04 14:30</text><g transform="translate(40, 500) translate(0, 70)"><rect width="140" height="60" fill="#198754" rx="8"/><text x="70" y="42" fill="#fff" font-family="Apple SD Gothic Neo, Arial, sans-serif" font-size="32" font-weight="bold" text-anchor="middle">매수</text></g><text x="180" y="122" fill="#6c757d" font-family="Apple SD Gothic Neo, Arial, sans-serif" font-size="32" transform="translate(40, 500)">신뢰도 85.0%</text></g><g><g transform="translate(40, 700)"><rect width="920" height="110" fill="#fff" stroke="#0d6efd" stroke-width="3" rx="10"/><text x="460" y="70" fill="#0d6efd" font-family="Apple SD Gothic Neo, Arial, sans-serif" font-size="38" font-weight="bold" text-anchor="middle">📊 종목 분석 상세</text></g><g transform="translate(40, 700) translate(0, 150)"><rect width="920" height="110" fill="#fff" stroke="#17a2b8" stroke-width="3" rx="10"/><text x="460" y="70" fill="#17a2b8" font-family="Apple SD Gothic Neo, Arial, sans-serif" font-size="38" font-weight="bold" text-anchor="middle">🤖 분석 실행</text></g><g transform="translate(40, 700) translate(1000, 0)"><rect width="920" height="110" fill="#fff" stroke="#198754" stroke-width="3" rx="10"/><text x="460" y="70" fill="#198754" font-family="Apple SD Gothic Neo, Arial, sans-serif" font-size="38" font-weight="bold" text-anchor="middle">🛒 분할 매수</text></g><g transform="translate(40, 700) translate(1000, 150)"><rect width="920" height="110" fill="#fff" stroke="#dc3545" stroke-width="3" rx="10"/><text x="460" y="70" fill="#dc3545" font-family="Apple SD Gothic Neo, Arial, sans-serif" font-size="38" font-weight="bold" text-anchor="middle">📤 분할 매도</text></g></g><g><text x="920" y="40" fill="#6c757d" font-family="Apple SD Gothic Neo, Arial, sans-serif" font-size="28" font-weight="bold" text-anchor="end" transform="translate(1000, 1050)">각 코인마다 독립적으로 작업 가능</text><text x="920" y="85" fill="#6c757d" font-family="Apple SD Gothic Neo, Arial, sans-serif" font-size="28" text-anchor="end" transform="translate(1000, 1050)">전체 자동 실행 vs 개별 실행 선택</text></g></g></svg>