<svg xmlns="http://www.w3.org/2000/svg" viewBox="0 0 1200 600"><rect width="1200" height="600" fill="#0f172a"/><text x="600" y="50" fill="#fff" font-family="Apple SD Gothic Neo, Arial, sans-serif" font-size="32" font-weight="bold" text-anchor="middle">Upbit API를 통한 24시간 암호화폐 자동 분석 시스템</text><g id="data-collection"><rect width="300" height="400" x="50" y="120" fill="#1e293b" stroke="#3b82f6" stroke-width="3" rx="10"/><text x="200" y="160" fill="#60a5fa" font-family="Apple SD Gothic Neo, Arial" font-size="24" font-weight="bold" text-anchor="middle">데이터 수집</text><circle cx="200" cy="220" r="40" fill="#003c7f"/><text x="200" y="230" fill="#fff" font-family="Apple SD Gothic Neo, Arial" font-size="20" font-weight="bold" text-anchor="middle">Upbit</text><g id="data-items"><rect width="240" height="50" x="80" y="290" fill="#334155" rx="5"/><text x="200" y="320" fill="#e2e8f0" font-family="Apple SD Gothic Neo, Arial" font-size="16" text-anchor="middle">일봉 데이터 (200일)</text><rect width="240" height="50" x="80" y="355" fill="#334155" rx="5"/><text x="200" y="385" fill="#e2e8f0" font-family="Apple SD Gothic Neo, Arial" font-size="16" text-anchor="middle">실시간 현재가</text><rect width="240" height="50" x="80" y="420" fill="#334155" rx="5"/><text x="200" y="450" fill="#e2e8f0" font-family="Apple SD Gothic Neo, Arial" font-size="16" text-anchor="middle">분봉 (60/5/1분)</text></g></g><path fill="none" stroke="#60a5fa" stroke-width="3" marker-end="url(#arrowhead)" d="M 360 320 L 440 320"/><g id="ai-analysis"><rect width="300" height="400" x="450" y="120" fill="#1e293b" stroke="#8b5cf6" stroke-width="3" rx="10"/><text x="600" y="160" fill="#a78bfa" font-family="Apple SD Gothic Neo, Arial" font-size="24" font-weight="bold" text-anchor="middle">AI 분석</text><circle cx="600" cy="220" r="40" fill="#4285f4"/><text x="600" y="230" fill="#fff" font-family="Apple SD Gothic Neo, Arial" font-size="18" font-weight="bold" text-anchor="middle">Gemini</text><g id="analysis-items"><rect width="240" height="45" x="480" y="280" fill="#334155" rx="5"/><text x="600" y="308" fill="#e2e8f0" font-family="Apple SD Gothic Neo, Arial" font-size="15" text-anchor="middle">기술적 지표 계산</text><rect width="240" height="45" x="480" y="340" fill="#334155" rx="5"/><text x="600" y="368" fill="#e2e8f0" font-family="Apple SD Gothic Neo, Arial" font-size="15" text-anchor="middle">프롬프트 생성</text><rect width="240" height="45" x="480" y="400" fill="#334155" rx="5"/><text x="600" y="428" fill="#e2e8f0" font-family="Apple SD Gothic Neo, Arial" font-size="15" text-anchor="middle">매수/관망/매도 판단</text><rect width="240" height="45" x="480" y="460" fill="#334155" rx="5"/><text x="600" y="488" fill="#e2e8f0" font-family="Apple SD Gothic Neo, Arial" font-size="15" text-anchor="middle">목표가 제시</text></g></g><path fill="none" stroke="#a78bfa" stroke-width="3" marker-end="url(#arrowhead)" d="M 760 320 L 840 320"/><g id="results"><rect width="300" height="400" x="850" y="120" fill="#1e293b" stroke="#10b981" stroke-width="3" rx="10"/><text x="1000" y="160" fill="#34d399" font-family="Apple SD Gothic Neo, Arial" font-size="24" font-weight="bold" text-anchor="middle">실시간 결과</text><circle cx="1000" cy="220" r="45" fill="#059669"/><text x="1000" y="220" fill="#fff" font-family="Apple SD Gothic Neo, Arial" font-size="28" font-weight="bold" text-anchor="middle">24/7</text><text x="1000" y="242" fill="#fff" font-family="Apple SD Gothic Neo, Arial" font-size="12" text-anchor="middle">365일</text><g id="result-items"><rect width="240" height="50" x="880" y="290" fill="#334155" rx="5"/><text x="1000" y="320" fill="#e2e8f0" font-family="Apple SD Gothic Neo, Arial" font-size="16" text-anchor="middle">즉시 피드백</text><rect width="240" height="50" x="880" y="355" fill="#334155" rx="5"/><text x="1000" y="385" fill="#e2e8f0" font-family="Apple SD Gothic Neo, Arial" font-size="16" text-anchor="middle">빠른 반복 개발</text><rect width="240" height="50" x="880" y="420" fill="#334155" rx="5"/><text x="1000" y="450" fill="#e2e8f0" font-family="Apple SD Gothic Neo, Arial" font-size="16" text-anchor="middle">실전 테스트</text></g></g><defs><marker id="arrowhead" markerHeight="10" markerWidth="10" orient="auto" refX="9" refY="3"><polygon fill="#60a5fa" points="0 0 10 3 0 6"/></marker></defs><text x="600" y="570" fill="#94a3b8" font-family="Apple SD Gothic Neo, Arial" font-size="16" text-anchor="middle">JWT 인증 • REST API • WebSocket • 200+ 코인 지원</text></svg>