<svg xmlns="http://www.w3.org/2000/svg" viewBox="0 0 2560 1600"><rect width="2560" height="1600" fill="#f8f9fa"/><text x="1280" y="100" fill="#212529" font-family="Apple SD Gothic Neo, Arial, sans-serif" font-size="64" font-weight="bold" text-anchor="middle">Flower 모니터링 대시보드</text><g transform="translate(200, 200)"><rect width="2160" height="1280" fill="#fff" stroke="#212529" stroke-width="4" rx="10"/><rect width="2160" height="80" fill="#343a40" rx="10"/><circle cx="40" cy="40" r="15" fill="#dc3545"/><circle cx="90" cy="40" r="15" fill="#ffc107"/><circle cx="140" cy="40" r="15" fill="#28a745"/><text x="1080" y="55" fill="#fff" font-family="Courier New, monospace" font-size="32" text-anchor="middle">localhost:5555 - Flower: Celery management</text><rect width="2160" height="70" y="80" fill="#495057"/><text x="100" y="130" fill="#fff" font-family="Apple SD Gothic Neo, Arial, sans-serif" font-size="32" font-weight="bold">Workers</text><text x="350" y="130" fill="#dee2e6" font-family="Apple SD Gothic Neo, Arial, sans-serif" font-size="32">Tasks</text><text x="550" y="130" fill="#dee2e6" font-family="Apple SD Gothic Neo, Arial, sans-serif" font-size="32">Monitor</text><text x="800" y="130" fill="#dee2e6" font-family="Apple SD Gothic Neo, Arial, sans-serif" font-size="32">Broker</text><g transform="translate(60, 200)"><rect width="480" height="180" fill="#0d6efd" rx="10"/><text x="240" y="60" fill="#fff" font-family="Apple SD Gothic Neo, Arial, sans-serif" font-size="32" text-anchor="middle">실행 중인 작업</text><text x="240" y="130" fill="#fff" font-family="Arial, sans-serif" font-size="72" font-weight="bold" text-anchor="middle">3</text><g transform="translate(540, 0)"><rect width="480" height="180" fill="#198754" rx="10"/><text x="240" y="60" fill="#fff" font-family="Apple SD Gothic Neo, Arial, sans-serif" font-size="32" text-anchor="middle">완료된 작업</text><text x="240" y="130" fill="#fff" font-family="Arial, sans-serif" font-size="72" font-weight="bold" text-anchor="middle">127</text></g><g transform="translate(1080, 0)"><rect width="480" height="180" fill="#dc3545" rx="10"/><text x="240" y="60" fill="#fff" font-family="Apple SD Gothic Neo, Arial, sans-serif" font-size="32" text-anchor="middle">실패한 작업</text><text x="240" y="130" fill="#fff" font-family="Arial, sans-serif" font-size="72" font-weight="bold" text-anchor="middle">5</text></g><g transform="translate(1620, 0)"><rect width="420" height="180" fill="#6610f2" rx="10"/><text x="210" y="60" fill="#fff" font-family="Apple SD Gothic Neo, Arial, sans-serif" font-size="32" text-anchor="middle">Workers</text><text x="210" y="130" fill="#fff" font-family="Arial, sans-serif" font-size="72" font-weight="bold" text-anchor="middle">2</text></g></g><g transform="translate(60, 440)"><rect width="2040" height="60" fill="#e9ecef"/><text x="40" y="40" fill="#495057" font-family="Apple SD Gothic Neo, Arial, sans-serif" font-size="28" font-weight="bold">작업 이름</text><text x="700" y="40" fill="#495057" font-family="Apple SD Gothic Neo, Arial, sans-serif" font-size="28" font-weight="bold">상태</text><text x="1000" y="40" fill="#495057" font-family="Apple SD Gothic Neo, Arial, sans-serif" font-size="28" font-weight="bold">진행률</text><text x="1500" y="40" fill="#495057" font-family="Apple SD Gothic Neo, Arial, sans-serif" font-size="28" font-weight="bold">시작 시간</text><g transform="translate(0, 60)"><rect width="2040" height="80" fill="#fff" stroke="#dee2e6" stroke-width="1"/><text x="40" y="50" fill="#212529" font-family="Courier New, monospace" font-size="26">automation.per_coin</text><rect width="180" height="40" x="700" y="20" fill="#0d6efd" rx="5"/><text x="790" y="48" fill="#fff" font-family="Apple SD Gothic Neo, Arial, sans-serif" font-size="24" font-weight="bold" text-anchor="middle">PROGRESS</text><rect width="400" height="40" x="1000" y="20" fill="#e9ecef" rx="5"/><rect width="280" height="40" x="1000" y="20" fill="#0dcaf0" rx="5"/><text x="1200" y="48" fill="#000" font-family="Arial, sans-serif" font-size="24" font-weight="bold" text-anchor="middle">70%</text><text x="1500" y="50" fill="#6c757d" font-family="Courier New, monospace" font-size="26">14:32:15</text></g><g transform="translate(0, 140)"><rect width="2040" height="80" fill="#f8f9fa" stroke="#dee2e6" stroke-width="1"/><text x="40" y="50" fill="#212529" font-family="Courier New, monospace" font-size="26">analyze.single_coin</text><rect width="180" height="40" x="700" y="20" fill="#198754" rx="5"/><text x="790" y="48" fill="#fff" font-family="Apple SD Gothic Neo, Arial, sans-serif" font-size="24" font-weight="bold" text-anchor="middle">SUCCESS</text><rect width="400" height="40" x="1000" y="20" fill="#198754" rx="5"/><text x="1200" y="48" fill="#fff" font-family="Arial, sans-serif" font-size="24" font-weight="bold" text-anchor="middle">100%</text><text x="1500" y="50" fill="#6c757d" font-family="Courier New, monospace" font-size="26">14:31:08</text></g><g transform="translate(0, 220)"><rect width="2040" height="80" fill="#fff" stroke="#dee2e6" stroke-width="1"/><text x="40" y="50" fill="#212529" font-family="Courier New, monospace" font-size="26">upbit.execute_buy_orders</text><rect width="180" height="40" x="700" y="20" fill="#17a2b8" rx="5"/><text x="790" y="48" fill="#fff" font-family="Apple SD Gothic Neo, Arial, sans-serif" font-size="24" font-weight="bold" text-anchor="middle">PENDING</text><rect width="400" height="40" x="1000" y="20" fill="#e9ecef" rx="5"/><text x="1200" y="48" fill="#6c757d" font-family="Arial, sans-serif" font-size="24" text-anchor="middle">0%</text><text x="1500" y="50" fill="#6c757d" font-family="Courier New, monospace" font-size="26">14:32:42</text></g><g transform="translate(0, 300)"><rect width="2040" height="80" fill="#f8f9fa" stroke="#dee2e6" stroke-width="1"/><text x="40" y="50" fill="#212529" font-family="Courier New, monospace" font-size="26">analyze.run_for_my_coins</text><rect width="180" height="40" x="700" y="20" fill="#dc3545" rx="5"/><text x="790" y="48" fill="#fff" font-family="Apple SD Gothic Neo, Arial, sans-serif" font-size="24" font-weight="bold" text-anchor="middle">FAILURE</text><rect width="400" height="40" x="1000" y="20" fill="#dc3545" rx="5"/><text x="1200" y="48" fill="#fff" font-family="Arial, sans-serif" font-size="24" font-weight="bold" text-anchor="middle">ERROR</text><text x="1500" y="50" fill="#6c757d" font-family="Courier New, monospace" font-size="26">14:30:15</text></g></g><g><text x="0" y="30" fill="#212529" font-family="Apple SD Gothic Neo, Arial, sans-serif" font-size="36" font-weight="bold" transform="translate(60, 980)">Worker 상태</text><g transform="translate(60, 980) translate(0, 60)"><rect width="1000" height="100" fill="#fff" stroke="#198754" stroke-width="3" rx="8"/><circle cx="50" cy="50" r="15" fill="#198754"/><text x="90" y="60" fill="#212529" font-family="Courier New, monospace" font-size="28" font-weight="bold">celery@worker1</text><text x="800" y="40" fill="#6c757d" font-family="Apple SD Gothic Neo, Arial, sans-serif" font-size="24" text-anchor="end">CPU: 45%</text><text x="800" y="75" fill="#6c757d" font-family="Apple SD Gothic Neo, Arial, sans-serif" font-size="24" text-anchor="end">메모리: 512MB</text></g><g transform="translate(60, 980) translate(1040, 60)"><rect width="1000" height="100" fill="#fff" stroke="#198754" stroke-width="3" rx="8"/><circle cx="50" cy="50" r="15" fill="#198754"/><text x="90" y="60" fill="#212529" font-family="Courier New, monospace" font-size="28" font-weight="bold">celery@worker2</text><text x="800" y="40" fill="#6c757d" font-family="Apple SD Gothic Neo, Arial, sans-serif" font-size="24" text-anchor="end">CPU: 23%</text><text x="800" y="75" fill="#6c757d" font-family="Apple SD Gothic Neo, Arial, sans-serif" font-size="24" text-anchor="end">메모리: 384MB</text></g></g></g></svg>